<?xml version="1.0" encoding="utf-8"?>
<!-- Generator: Adobe Illustrator 16.0.0, SVG Export Plug-In . SVG Version: 6.00 Build 0)  -->
<!DOCTYPE svg PUBLIC "-//W3C//DTD SVG 1.1//EN" "http://www.w3.org/Graphics/SVG/1.1/DTD/svg11.dtd" [
	<!ENTITY ns_extend "http://ns.adobe.com/Extensibility/1.0/">
	<!ENTITY ns_ai "http://ns.adobe.com/AdobeIllustrator/10.0/">
	<!ENTITY ns_graphs "http://ns.adobe.com/Graphs/1.0/">
	<!ENTITY ns_vars "http://ns.adobe.com/Variables/1.0/">
	<!ENTITY ns_imrep "http://ns.adobe.com/ImageReplacement/1.0/">
	<!ENTITY ns_sfw "http://ns.adobe.com/SaveForWeb/1.0/">
	<!ENTITY ns_custom "http://ns.adobe.com/GenericCustomNamespace/1.0/">
	<!ENTITY ns_adobe_xpath "http://ns.adobe.com/XPath/1.0/">
]>
<svg version="1.1" id="Capa_1" xmlns:x="&ns_extend;" xmlns:i="&ns_ai;" xmlns:graph="&ns_graphs;"
	 xmlns="http://www.w3.org/2000/svg" xmlns:xlink="http://www.w3.org/1999/xlink" x="0px" y="0px" width="41.585px"
	 height="45.438px" viewBox="0 0 41.585 45.438" enable-background="new 0 0 41.585 45.438" xml:space="preserve">
<metadata>
	<sfw  xmlns="&ns_sfw;">
		<slices></slices>
		<sliceSourceBounds  width="41.585" height="45.438" x="28.708" y="27.782" bottomLeftOrigin="true"></sliceSourceBounds>
	</sfw>
</metadata>
<path fill="#F6F6F6" d="M39.477,11.11c-0.371-3.627-0.962-6.45-1.897-7.562c-3.854-4.563-30.857-4.897-33.925,0
	c-0.75,1.2-1.276,4.015-1.629,7.567C0.887,11.25,0,12.209,0,13.383v4.443c0,0.987,0.626,1.82,1.5,2.146
	c-0.207,6.998-0.039,14.299,0.271,17.93c0,2.804,1.883,2.339,1.883,2.339h1.765v3.025c0,1.199,1.237,2.171,2.761,2.171
	c1.526,0,2.763-0.972,2.763-2.171V40.24h20.534v3.025c0,1.199,1.235,2.171,2.762,2.171c1.524,0,2.761-0.972,2.761-2.171V40.24h0.58
	c0,0,2.217,0.304,2.358-1.017c0-3.621,0.228-11.646,0.04-19.222c0.93-0.291,1.607-1.146,1.607-2.177v-4.443
	C41.585,12.181,40.656,11.206,39.477,11.11z M10.25,4.2h20.735v3.137H10.25V4.2z M10.546,36.667c-1.628,0-2.947-1.319-2.947-2.948
	c0-1.627,1.319-2.945,2.947-2.945s2.948,1.318,2.948,2.945C13.494,35.347,12.175,36.667,10.546,36.667z M30.875,36.667
	c-1.627,0-2.949-1.319-2.949-2.948c0-1.627,1.32-2.945,2.949-2.945c1.627,0,2.946,1.318,2.946,2.945
	C33.822,35.347,32.501,36.667,30.875,36.667z M34.621,23.767H6.614V9.077h28.007V23.767z"/>
</svg>
