<?xml version="1.0" encoding="utf-8"?>
<!-- Generator: Adobe Illustrator 16.0.0, SVG Export Plug-In . SVG Version: 6.00 Build 0)  -->
<!DOCTYPE svg PUBLIC "-//W3C//DTD SVG 1.1//EN" "http://www.w3.org/Graphics/SVG/1.1/DTD/svg11.dtd" [
	<!ENTITY ns_extend "http://ns.adobe.com/Extensibility/1.0/">
	<!ENTITY ns_ai "http://ns.adobe.com/AdobeIllustrator/10.0/">
	<!ENTITY ns_graphs "http://ns.adobe.com/Graphs/1.0/">
	<!ENTITY ns_vars "http://ns.adobe.com/Variables/1.0/">
	<!ENTITY ns_imrep "http://ns.adobe.com/ImageReplacement/1.0/">
	<!ENTITY ns_sfw "http://ns.adobe.com/SaveForWeb/1.0/">
	<!ENTITY ns_custom "http://ns.adobe.com/GenericCustomNamespace/1.0/">
	<!ENTITY ns_adobe_xpath "http://ns.adobe.com/XPath/1.0/">
]>
<svg version="1.1" id="Layer_10" xmlns:x="&ns_extend;" xmlns:i="&ns_ai;" xmlns:graph="&ns_graphs;"
	 xmlns="http://www.w3.org/2000/svg" xmlns:xlink="http://www.w3.org/1999/xlink" x="0px" y="0px" width="100px" height="100px"
	 viewBox="0 0 100 100" enable-background="new 0 0 100 100" xml:space="preserve">
<metadata>
	<sfw  xmlns="&ns_sfw;">
		<slices></slices>
		<sliceSourceBounds  width="79.889" height="66.194" x="9.556" y="17.402" bottomLeftOrigin="true"></sliceSourceBounds>
	</sfw>
</metadata>
<path d="M89.943,53.674c0-1.572-0.354-3.072-0.995-4.446c-0.066-0.349-0.142-0.698-0.236-1.051l-6.938-17.198l-0.047-0.155
	c-2.429-7.229-5.883-13.92-14.644-13.92H33.59c-8.976,0-12.148,6.857-14.629,13.88l-7.259,17.24
	c-1.049,1.681-1.646,3.605-1.646,5.65v5.352c0,0.826,0.098,1.636,0.284,2.416c-0.181,0.47-0.284,0.979-0.284,1.513V78.87
	c0,2.335,1.892,4.228,4.226,4.228h8.77c2.333,0,4.225-1.893,4.225-4.228v-7.958h45.948v7.958c0,2.335,1.892,4.228,4.226,4.228h8.269
	c2.334,0,4.227-1.893,4.227-4.228V62.953c0-0.533-0.104-1.043-0.284-1.514c0.187-0.779,0.284-1.588,0.284-2.416v-5.35H89.943z
	 M24.111,32.511c2.763-7.796,4.985-10.176,9.479-10.176h33.492c4.461,0,6.943,2.654,9.469,10.142l5.063,10.262
	c-1.653-0.612-3.474-0.952-5.386-0.952H23.771c-1.721,0-3.366,0.277-4.884,0.778L24.111,32.511z M28.461,61.057h-9.253
	c-1.666,0-3.017-1.352-3.017-3.019c0-1.666,1.351-3.017,3.017-3.017h9.253c1.667,0,3.018,1.351,3.018,3.017
	C31.479,59.705,30.127,61.057,28.461,61.057z M61.148,60.453H39.625c-1.055,0-1.91-0.855-1.91-1.911s0.855-1.911,1.91-1.911h21.523
	c1.056,0,1.91,0.855,1.91,1.911S62.204,60.453,61.148,60.453z M80.559,61.057h-9.252c-1.668,0-3.018-1.352-3.018-3.019
	c0-1.666,1.352-3.017,3.018-3.017h9.252c1.668,0,3.019,1.351,3.019,3.017C83.577,59.705,82.227,61.057,80.559,61.057z"/>
</svg>
