<?xml version="1.0" encoding="utf-8"?>
<!-- Generator: Adobe Illustrator 16.0.0, SVG Export Plug-In . SVG Version: 6.00 Build 0)  -->
<!DOCTYPE svg PUBLIC "-//W3C//DTD SVG 1.1//EN" "http://www.w3.org/Graphics/SVG/1.1/DTD/svg11.dtd" [
	<!ENTITY ns_extend "http://ns.adobe.com/Extensibility/1.0/">
	<!ENTITY ns_ai "http://ns.adobe.com/AdobeIllustrator/10.0/">
	<!ENTITY ns_graphs "http://ns.adobe.com/Graphs/1.0/">
	<!ENTITY ns_vars "http://ns.adobe.com/Variables/1.0/">
	<!ENTITY ns_imrep "http://ns.adobe.com/ImageReplacement/1.0/">
	<!ENTITY ns_sfw "http://ns.adobe.com/SaveForWeb/1.0/">
	<!ENTITY ns_custom "http://ns.adobe.com/GenericCustomNamespace/1.0/">
	<!ENTITY ns_adobe_xpath "http://ns.adobe.com/XPath/1.0/">
]>
<svg version="1.1" id="Icons" xmlns:x="&ns_extend;" xmlns:i="&ns_ai;" xmlns:graph="&ns_graphs;"
	 xmlns="http://www.w3.org/2000/svg" xmlns:xlink="http://www.w3.org/1999/xlink" x="0px" y="0px" width="100px" height="100px"
	 viewBox="0 0 100 100" enable-background="new 0 0 100 100" xml:space="preserve">
<metadata>
	<sfw  xmlns="&ns_sfw;">
		<slices></slices>
		<sliceSourceBounds  bottomLeftOrigin="true" width="82.136" height="78.94" y="10.934" x="6.929"></sliceSourceBounds>
	</sfw>
</metadata>
<circle fill="#74ACE6" stroke="#000000" stroke-width="0.5" stroke-miterlimit="10" cx="50.094" cy="50.096" r="39.22"/>
<image display="none" overflow="visible" enable-background="new    " width="113" height="57" xlink:href="Chicago-NewOpen311InformationChart.jpg"  transform="matrix(0.677 0 0 0.677 7.4287 30.3516)">
</image>
<path fill="#FFFFFF" stroke="#000000" stroke-width="0.5" stroke-miterlimit="10" d="M20.938,34.846h21.448v5.625l-6.448,6.75
	c0,0,6.092,0.821,6.438,8c0.312,6.5-6.354,10.042-6.354,10.042l-1.25,0.042l-6.292,0.042c0,0-1.267-0.067-2.666-0.667
	c-4.375-1.875-6.312-4.521-6.312-4.521l4.938-4.125c0,0,6.943,4.23,8.625,2.938c2.438-1.875,2.062-3.688,2.062-3.688
	c0.514-3.229-7.819-3.266-7.819-3.266l-1.112-4.36l6.869-7.062H20.938V34.846z"/>
<polygon fill="#FFFFFF" stroke="#000000" stroke-width="0.5" stroke-miterlimit="10" points="47.812,44.033 46.073,37.639 
	52.875,34.846 59.542,34.846 59.396,65.347 52.562,65.347 52.646,42.096 "/>
<polygon fill="#FFFFFF" stroke="#000000" stroke-width="0.5" stroke-miterlimit="10" points="66.396,44.033 64.656,37.639 
	71.458,34.846 78.125,34.846 77.979,65.347 71.146,65.347 71.229,42.096 "/>
</svg>
