<?xml version="1.0" encoding="utf-8"?>
<!-- Generator: Adobe Illustrator 16.0.0, SVG Export Plug-In . SVG Version: 6.00 Build 0)  -->
<!DOCTYPE svg PUBLIC "-//W3C//DTD SVG 1.1//EN" "http://www.w3.org/Graphics/SVG/1.1/DTD/svg11.dtd" [
	<!ENTITY ns_extend "http://ns.adobe.com/Extensibility/1.0/">
	<!ENTITY ns_ai "http://ns.adobe.com/AdobeIllustrator/10.0/">
	<!ENTITY ns_graphs "http://ns.adobe.com/Graphs/1.0/">
	<!ENTITY ns_vars "http://ns.adobe.com/Variables/1.0/">
	<!ENTITY ns_imrep "http://ns.adobe.com/ImageReplacement/1.0/">
	<!ENTITY ns_sfw "http://ns.adobe.com/SaveForWeb/1.0/">
	<!ENTITY ns_custom "http://ns.adobe.com/GenericCustomNamespace/1.0/">
	<!ENTITY ns_adobe_xpath "http://ns.adobe.com/XPath/1.0/">
]>
<svg version="1.1" id="Capa_1" xmlns:x="&ns_extend;" xmlns:i="&ns_ai;" xmlns:graph="&ns_graphs;"
	 xmlns="http://www.w3.org/2000/svg" xmlns:xlink="http://www.w3.org/1999/xlink" x="0px" y="0px" width="41.585px"
	 height="45.438px" viewBox="0 0 41.585 45.438" enable-background="new 0 0 41.585 45.438" xml:space="preserve">
<metadata>
	<sfw  xmlns="&ns_sfw;">
		<slices></slices>
		<sliceSourceBounds  x="29.958" y="30.958" width="39.083" height="39.084" bottomLeftOrigin="true"></sliceSourceBounds>
	</sfw>
</metadata>
<rect x="1.251" y="3.177" fill="#59A9F9" width="39.083" height="39.084"/>
<path fill="#FFFFFF" d="M35.564,13.542c-0.293-2.867-0.76-5.098-1.5-5.978c-3.047-3.608-24.394-3.872-26.82,0
	c-0.593,0.949-1.008,3.174-1.288,5.982c-0.9,0.107-1.602,0.865-1.602,1.793v3.513c0,0.779,0.495,1.437,1.186,1.696
	C5.376,26.08,5.509,31.852,5.755,34.723c0,2.219,1.488,1.851,1.488,1.851h1.395v2.391c0,0.948,0.979,1.716,2.183,1.716
	c1.207,0,2.185-0.768,2.185-1.716v-2.393H29.24v2.391c0,0.948,0.977,1.716,2.184,1.716c1.205,0,2.182-0.768,2.182-1.716v-2.391
	h0.459c0,0,1.754,0.24,1.865-0.805c0-2.863,0.18-9.207,0.031-15.196c0.734-0.23,1.271-0.907,1.271-1.721v-3.513
	C37.232,14.388,36.496,13.618,35.564,13.542z M12.458,8.079h16.392v2.479H12.458V8.079z M12.692,33.747
	c-1.287,0-2.33-1.043-2.33-2.331c0-1.286,1.042-2.329,2.33-2.329c1.287,0,2.331,1.043,2.331,2.329
	C15.023,32.703,13.979,33.747,12.692,33.747z M28.763,33.747c-1.285,0-2.33-1.043-2.33-2.331c0-1.286,1.043-2.329,2.33-2.329
	s2.328,1.043,2.328,2.329C31.093,32.703,30.05,33.747,28.763,33.747z M31.724,23.548H9.583V11.935h22.141V23.548z"/>
</svg>
