<?xml version="1.0" encoding="utf-8"?>
<!-- Generator: Adobe Illustrator 16.0.0, SVG Export Plug-In . SVG Version: 6.00 Build 0)  -->
<!DOCTYPE svg PUBLIC "-//W3C//DTD SVG 1.1//EN" "http://www.w3.org/Graphics/SVG/1.1/DTD/svg11.dtd" [
	<!ENTITY ns_extend "http://ns.adobe.com/Extensibility/1.0/">
	<!ENTITY ns_ai "http://ns.adobe.com/AdobeIllustrator/10.0/">
	<!ENTITY ns_graphs "http://ns.adobe.com/Graphs/1.0/">
	<!ENTITY ns_vars "http://ns.adobe.com/Variables/1.0/">
	<!ENTITY ns_imrep "http://ns.adobe.com/ImageReplacement/1.0/">
	<!ENTITY ns_sfw "http://ns.adobe.com/SaveForWeb/1.0/">
	<!ENTITY ns_custom "http://ns.adobe.com/GenericCustomNamespace/1.0/">
	<!ENTITY ns_adobe_xpath "http://ns.adobe.com/XPath/1.0/">
]>
<svg version="1.1" id="Icons" xmlns:x="&ns_extend;" xmlns:i="&ns_ai;" xmlns:graph="&ns_graphs;"
	 xmlns="http://www.w3.org/2000/svg" xmlns:xlink="http://www.w3.org/1999/xlink" x="0px" y="0px" width="100px" height="100px"
	 viewBox="0 0 100 100" enable-background="new 0 0 100 100" xml:space="preserve">
<metadata>
	<sfw  xmlns="&ns_sfw;">
		<slices></slices>
		<sliceSourceBounds  width="78.958" height="78.958" x="10.021" y="11.02" bottomLeftOrigin="true"></sliceSourceBounds>
	</sfw>
</metadata>
<rect x="22.334" y="22.336" transform="matrix(-0.7071 0.7071 -0.7071 -0.7071 120.7109 50.0028)" fill="#6A51A3" stroke="#000000" stroke-width="0.5" stroke-miterlimit="10" width="55.332" height="55.332"/>
<path fill="none" stroke="#000000" stroke-width="0.5" stroke-miterlimit="10" d="M46.417,67.021"/>
<path fill="none" stroke="#FFFFFF" stroke-miterlimit="10" d="M19.851,58.631"/>
<path fill="none" stroke="#FFFFFF" stroke-miterlimit="10" d="M50,88.766"/>
<g display="none">
	<g display="inline">
		<path d="M52.588,53.798c-0.15-0.165-0.342-0.289-0.541-0.394c-0.43-0.225-0.9-0.36-1.369-0.483v3.625
			c0.76-0.086,1.631-0.36,2.029-1.069l0,0c0.193-0.34,0.23-0.756,0.152-1.133C52.818,54.141,52.73,53.952,52.588,53.798z"/>
	</g>
	<g display="inline">
		<path d="M52.703,55.482c0.002-0.002,0.002-0.004,0.004-0.008l0,0C52.705,55.479,52.703,55.48,52.703,55.482z"/>
	</g>
	<g display="inline">
		<path d="M47.117,48.004c-0.13,0.189-0.212,0.406-0.235,0.637c-0.023,0.23-0.009,0.487,0.078,0.704
			c0.083,0.206,0.258,0.36,0.438,0.483c0.202,0.138,0.425,0.245,0.652,0.335c0.19,0.077,0.404,0.15,0.635,0.221v-3.28
			C48.102,47.229,47.466,47.494,47.117,48.004z"/>
	</g>
	<g display="inline">
		<path d="M52.725,55.449c-0.006,0.009-0.01,0.017-0.018,0.025l0,0C52.715,55.464,52.721,55.457,52.725,55.449z"/>
	</g>
	<g display="inline">
		<path d="M52.744,55.415C52.744,55.412,52.744,55.412,52.744,55.415L52.744,55.415z"/>
	</g>
	<g display="inline">
		<path d="M51.953,35.697c3.086-2.59,5.145-8.424,3.879-8.679c-1.686-0.34-5.343,1.147-7.111,1.41
			c-2.508,0.303-5.238-2.719-6.771-1.035c-1.247,1.37,0.894,6.35,4.241,8.52c-9.988,4.909-24.028,29.554,0.464,31.339
			C80.545,69.727,63.576,40.48,51.953,35.697z M54.867,55.133c-0.104,0.96-0.613,1.829-1.375,2.419
			c-0.805,0.623-1.812,0.912-2.814,0.994v1.062c0,0.283-0.123,0.561-0.336,0.748c-0.292,0.259-0.722,0.32-1.077,0.158
			c-0.35-0.16-0.58-0.521-0.58-0.906v-1.159c-0.172-0.032-0.343-0.07-0.51-0.117c-0.937-0.258-1.805-0.758-2.439-1.501
			c-0.316-0.368-0.574-0.788-0.752-1.241c-0.045-0.116-0.087-0.237-0.124-0.358c-0.034-0.11-0.068-0.225-0.078-0.338
			c-0.021-0.193,0.018-0.391,0.108-0.562c0.185-0.354,0.574-0.564,0.971-0.531c0.392,0.034,0.735,0.309,0.858,0.68
			c0.037,0.114,0.064,0.232,0.106,0.347s0.094,0.224,0.154,0.327c0.118,0.205,0.267,0.396,0.437,0.562
			c0.352,0.338,0.8,0.56,1.269,0.69v-3.943c-0.914-0.236-1.859-0.543-2.614-1.13c-0.367-0.286-0.679-0.64-0.883-1.061
			c-0.214-0.442-0.304-0.937-0.307-1.427c-0.003-0.498,0.091-0.991,0.299-1.445c0.194-0.425,0.474-0.805,0.818-1.122
			c0.734-0.676,1.708-1.053,2.688-1.191v-0.086v-1.015c0-0.284,0.124-0.559,0.337-0.747c0.292-0.259,0.721-0.322,1.076-0.159
			c0.35,0.161,0.581,0.521,0.581,0.906v1.015v0.081c0.131,0.016,0.26,0.036,0.389,0.059c0.961,0.174,1.902,0.571,2.604,1.263
			c0.332,0.328,0.604,0.719,0.795,1.145c0.056,0.119,0.103,0.241,0.144,0.365c0.037,0.115,0.074,0.234,0.095,0.355
			c0.028,0.194,0,0.393-0.084,0.568c-0.168,0.361-0.547,0.592-0.947,0.575c-0.391-0.018-0.745-0.273-0.885-0.64
			c-0.041-0.108-0.062-0.224-0.108-0.332c-0.041-0.11-0.099-0.216-0.162-0.313c-0.125-0.194-0.285-0.358-0.472-0.495
			c-0.397-0.295-0.883-0.449-1.366-0.534v3.773c0.573,0.138,1.149,0.287,1.702,0.507c0.837,0.327,1.625,0.832,2.078,1.626
			c-0.069-0.124-0.139-0.244,0.002,0.004c0.142,0.244,0.074,0.128,0.004,0.006C54.826,53.646,54.945,54.408,54.867,55.133z"/>
	</g>
	<g display="inline">
		<path d="M52.693,55.502c-0.006,0.01-0.01,0.02-0.018,0.025C52.682,55.521,52.688,55.514,52.693,55.502z"/>
	</g>
</g>
<path fill="#FFFFFF" d="M69.492,42.947v-3.081h-0.161v-2.935h-0.156v-1.039h-1.126v1.037c0,0-27.267,0.205-32.027,0
	c-0.729,0-4.887,0.437-0.715,7.261c0,0,1.894,3.057-0.702,6.469c-2.561,3.36-3.714,10.169-4.014,12.226h-0.084v1.227h11.816v-1.227
	v-1.123c-5.105,1,3.527-11.643,3.144-9.514c0.278,0.072,0.566,0.124,0.867,0.124h3.075c1.899,0,4.42-2.164,4.42-4.188
	c0-0.875-0.289-1.68-0.771-2.311h15.213l0.496-1.928h0.643v-0.931h-0.105l0.028-0.066h0.159V42.947z M49.412,50.581h-3.076
	c-0.225,0-0.446-0.042-0.652-0.107c0.18-1.122,0.317-2.127,0.416-2.909c0.258,0.907,0.763,1.855,1.755,2.27
	c0.068,0.026,0.139,0.041,0.212,0.041c0.23,0,0.453-0.153,0.542-0.393c0.118-0.322-0.034-0.68-0.333-0.806
	c-1.026-0.424-1.23-2.073-1.271-2.796h2.967c0.965,0.268,1.687,1.202,1.687,2.314C51.658,49.507,50.648,50.581,49.412,50.581z
	 M65.189,43.949h-15.19l2.64-0.933h12.551V43.949L65.189,43.949z"/>
</svg>
