<?xml version="1.0" encoding="utf-8"?>
<!-- Generator: Adobe Illustrator 16.0.0, SVG Export Plug-In . SVG Version: 6.00 Build 0)  -->
<!DOCTYPE svg PUBLIC "-//W3C//DTD SVG 1.1//EN" "http://www.w3.org/Graphics/SVG/1.1/DTD/svg11.dtd" [
	<!ENTITY ns_extend "http://ns.adobe.com/Extensibility/1.0/">
	<!ENTITY ns_ai "http://ns.adobe.com/AdobeIllustrator/10.0/">
	<!ENTITY ns_graphs "http://ns.adobe.com/Graphs/1.0/">
	<!ENTITY ns_vars "http://ns.adobe.com/Variables/1.0/">
	<!ENTITY ns_imrep "http://ns.adobe.com/ImageReplacement/1.0/">
	<!ENTITY ns_sfw "http://ns.adobe.com/SaveForWeb/1.0/">
	<!ENTITY ns_custom "http://ns.adobe.com/GenericCustomNamespace/1.0/">
	<!ENTITY ns_adobe_xpath "http://ns.adobe.com/XPath/1.0/">
]>
<svg version="1.1" id="Icons" xmlns:x="&ns_extend;" xmlns:i="&ns_ai;" xmlns:graph="&ns_graphs;"
	 xmlns="http://www.w3.org/2000/svg" xmlns:xlink="http://www.w3.org/1999/xlink" x="0px" y="0px" width="100px" height="100px"
	 viewBox="0 0 100 100" enable-background="new 0 0 100 100" xml:space="preserve">
<metadata>
	<sfw  xmlns="&ns_sfw;">
		<slices></slices>
		<sliceSourceBounds  width="78.959" height="16383" x="10.02" y="-8141" bottomLeftOrigin="true"></sliceSourceBounds>
	</sfw>
</metadata>
<rect x="22.333" y="22.335" transform="matrix(-0.7071 0.7071 -0.7071 -0.7071 120.7097 50.0024)" fill="#807DBA" stroke="#000000" stroke-width="0.5" stroke-miterlimit="10" width="55.332" height="55.332"/>
<path fill="none" stroke="#000000" stroke-width="0.5" stroke-miterlimit="10" d="M46.417,67.021"/>
<path fill="none" stroke="#FFFFFF" stroke-miterlimit="10" d="M19.851,58.631"/>
<path fill="none" stroke="#FFFFFF" stroke-miterlimit="10" d="M50,88.766"/>
<g display="none">
	<g display="inline">
		<path d="M52.588,53.798c-0.15-0.165-0.342-0.289-0.541-0.393c-0.43-0.225-0.9-0.361-1.369-0.484v3.625
			c0.76-0.086,1.631-0.361,2.029-1.07l0,0c0.193-0.339,0.23-0.755,0.152-1.132C52.818,54.14,52.73,53.952,52.588,53.798z"/>
	</g>
	<g display="inline">
		<path d="M52.703,55.483c0.002-0.003,0.002-0.005,0.004-0.008l0,0C52.705,55.479,52.703,55.48,52.703,55.483z"/>
	</g>
	<g display="inline">
		<path d="M47.117,48.004c-0.13,0.189-0.212,0.406-0.235,0.637c-0.023,0.23-0.009,0.487,0.078,0.704
			c0.083,0.206,0.258,0.36,0.438,0.483c0.202,0.138,0.425,0.245,0.652,0.335c0.19,0.077,0.404,0.15,0.635,0.221v-3.28
			C48.102,47.229,47.466,47.494,47.117,48.004z"/>
	</g>
	<g display="inline">
		<path d="M52.725,55.449c-0.006,0.009-0.01,0.017-0.018,0.026l0,0C52.715,55.464,52.721,55.457,52.725,55.449z"/>
	</g>
	<g display="inline">
		<path d="M52.744,55.415C52.744,55.412,52.744,55.412,52.744,55.415L52.744,55.415z"/>
	</g>
	<g display="inline">
		<path d="M51.953,35.697c3.086-2.59,5.145-8.424,3.879-8.679c-1.686-0.34-5.343,1.147-7.111,1.41
			c-2.508,0.303-5.238-2.719-6.771-1.035c-1.247,1.37,0.894,6.35,4.241,8.52c-9.988,4.909-24.028,29.554,0.464,31.339
			C80.545,69.727,63.576,40.48,51.953,35.697z M54.867,55.133c-0.104,0.96-0.613,1.829-1.375,2.419
			c-0.805,0.623-1.812,0.912-2.814,0.994v1.061c0,0.284-0.123,0.56-0.336,0.748c-0.292,0.258-0.722,0.321-1.077,0.158
			c-0.35-0.16-0.58-0.521-0.58-0.906v-1.16c-0.172-0.032-0.343-0.07-0.51-0.117c-0.937-0.258-1.805-0.758-2.439-1.501
			c-0.316-0.368-0.574-0.788-0.752-1.241c-0.045-0.118-0.087-0.239-0.124-0.36c-0.034-0.11-0.068-0.223-0.078-0.337
			c-0.021-0.194,0.018-0.39,0.108-0.562c0.185-0.354,0.574-0.566,0.971-0.531c0.392,0.034,0.735,0.307,0.858,0.679
			c0.037,0.115,0.064,0.233,0.106,0.346c0.042,0.114,0.094,0.224,0.154,0.328c0.118,0.205,0.267,0.395,0.437,0.561
			c0.352,0.338,0.8,0.56,1.269,0.69v-3.943c-0.914-0.236-1.859-0.543-2.614-1.13c-0.367-0.286-0.679-0.64-0.883-1.061
			c-0.214-0.442-0.304-0.937-0.307-1.427c-0.003-0.498,0.091-0.991,0.299-1.445c0.194-0.425,0.474-0.805,0.818-1.122
			c0.734-0.676,1.708-1.053,2.688-1.191v-0.086v-1.015c0-0.284,0.124-0.559,0.337-0.747c0.292-0.259,0.721-0.322,1.076-0.159
			c0.35,0.161,0.58,0.521,0.58,0.906v1.015v0.081c0.131,0.016,0.26,0.036,0.389,0.059c0.961,0.174,1.902,0.571,2.605,1.263
			c0.332,0.328,0.604,0.719,0.795,1.145c0.055,0.119,0.102,0.241,0.143,0.365c0.037,0.115,0.074,0.234,0.094,0.355
			c0.029,0.194,0,0.393-0.084,0.568c-0.168,0.361-0.547,0.592-0.947,0.575c-0.391-0.018-0.746-0.273-0.885-0.64
			c-0.041-0.108-0.062-0.224-0.109-0.332c-0.041-0.11-0.098-0.216-0.162-0.313c-0.125-0.194-0.285-0.358-0.471-0.495
			c-0.398-0.295-0.883-0.449-1.367-0.534v3.773c0.574,0.138,1.15,0.288,1.703,0.507c0.836,0.327,1.625,0.832,2.078,1.626
			c-0.07-0.124-0.139-0.244,0.002,0.004c0.141,0.244,0.074,0.128,0.004,0.006C54.826,53.646,54.945,54.408,54.867,55.133z"/>
	</g>
	<g display="inline">
		<path d="M52.693,55.502c-0.006,0.01-0.01,0.019-0.016,0.026C52.682,55.522,52.688,55.513,52.693,55.502z"/>
	</g>
</g>
<path d="M44.774,38.956v-0.999h0.74v-3.963h4.37v0.748c-0.035-0.011-0.07-0.018-0.106-0.018c-0.3,0-0.542,0.393-0.542,0.875
	c0,0.483,0.242,0.875,0.542,0.875c0.036,0,0.071-0.006,0.106-0.017v1.499h0.74v0.999H44.774L44.774,38.956z M41.236,41.742
	c-0.168-0.166-0.273-0.396-0.273-0.651c0-0.504,0.409-0.912,0.913-0.912h11.17c0.503,0,0.912,0.408,0.912,0.912
	c0,0.256-0.105,0.486-0.275,0.651c0.506,0.408,0.831,1.031,0.831,1.73v26.221c0,1.227-0.994,2.222-2.222,2.222h-9.666
	c-1.227,0-2.222-0.995-2.222-2.222V43.473C40.404,42.772,40.729,42.148,41.236,41.742z M49.967,41.328h2.292
	c0.537,0,0.537-0.833,0-0.833h-2.292C49.43,40.495,49.43,41.328,49.967,41.328z M41.704,68.271c0,0.537,0.833,0.537,0.833,0V56.882
	c0-0.537-0.833-0.537-0.833,0V68.271z M59.291,36.574l-0.044,0.316c-0.01,0.081,0.045,0.153,0.126,0.165l0.632,0.087
	c0.006,0,0.013,0.001,0.021,0.001c0.03,0,0.061-0.01,0.087-0.029c0.031-0.023,0.051-0.059,0.056-0.098l0.044-0.315
	c0.01-0.081-0.045-0.154-0.123-0.165l-0.633-0.086C59.376,36.438,59.304,36.495,59.291,36.574z M54.018,34.138
	c0.035-0.015,0.063-0.045,0.077-0.079c0.015-0.036,0.015-0.077,0-0.111l-0.125-0.292c-0.03-0.074-0.116-0.109-0.189-0.077L52.775,34
	c-0.074,0.032-0.108,0.116-0.077,0.19l0.124,0.293c0.015,0.037,0.042,0.065,0.078,0.079c0.019,0.008,0.036,0.011,0.056,0.011
	s0.039-0.003,0.056-0.012L54.018,34.138z M56.027,33.293c0.036-0.016,0.063-0.043,0.078-0.079c0.014-0.036,0.014-0.076-0.001-0.111
	l-0.125-0.294c-0.031-0.074-0.116-0.108-0.189-0.077l-1.005,0.422c-0.035,0.015-0.063,0.043-0.078,0.08
	c-0.016,0.036-0.016,0.075,0.001,0.111l0.125,0.294c0.023,0.055,0.077,0.088,0.133,0.088c0.02,0,0.038-0.002,0.058-0.011
	L56.027,33.293z M58.455,36.781l0.045-0.316c0.005-0.038-0.005-0.076-0.029-0.107c-0.022-0.031-0.058-0.051-0.095-0.056
	l-1.081-0.148c-0.037-0.006-0.076,0.005-0.105,0.028c-0.031,0.023-0.052,0.058-0.058,0.096l-0.044,0.318
	c-0.01,0.079,0.045,0.152,0.126,0.162l1.079,0.148c0.007,0,0.012,0.001,0.02,0.001C58.385,36.908,58.446,36.855,58.455,36.781z
	 M58.035,32.447c0.074-0.032,0.109-0.117,0.079-0.191l-0.126-0.294c-0.014-0.036-0.043-0.063-0.078-0.079
	c-0.037-0.014-0.077-0.014-0.112,0.001l-1.003,0.422c-0.076,0.032-0.11,0.117-0.08,0.19l0.124,0.294
	c0.016,0.036,0.043,0.065,0.079,0.08c0.017,0.006,0.036,0.01,0.056,0.01s0.038-0.003,0.057-0.011L58.035,32.447z M52.142,36.472
	c0.043-0.069,0.022-0.159-0.044-0.202l-0.431-0.274l0.146,0.019c0.007,0,0.014,0.001,0.021,0.001c0.071,0,0.133-0.053,0.144-0.125
	l0.043-0.316c0.007-0.038-0.005-0.077-0.027-0.107c-0.023-0.032-0.058-0.051-0.097-0.056l-0.631-0.086
	c-0.08-0.015-0.153,0.045-0.165,0.125l-0.044,0.316c-0.01,0.08,0.045,0.152,0.125,0.164l0.194,0.027
	c-0.006,0.005-0.012,0.009-0.016,0.015l-0.171,0.27c-0.044,0.067-0.024,0.157,0.044,0.201l0.537,0.342
	c0.022,0.016,0.05,0.023,0.078,0.023c0.01,0,0.021-0.001,0.03-0.003c0.038-0.008,0.071-0.031,0.092-0.064L52.142,36.472z
	 M52.01,34.987c0.073-0.032,0.107-0.118,0.077-0.191l-0.123-0.295c-0.017-0.036-0.044-0.064-0.079-0.078
	c-0.036-0.014-0.079-0.014-0.112,0l-0.589,0.248c-0.035,0.015-0.063,0.043-0.078,0.08c-0.014,0.036-0.014,0.077,0.002,0.111
	l0.123,0.294c0.023,0.055,0.077,0.088,0.134,0.088c0.019,0,0.038-0.002,0.058-0.011L52.01,34.987z M59.627,31.774
	c0.035-0.015,0.063-0.044,0.078-0.08c0.014-0.034,0.013-0.075-0.001-0.111l-0.124-0.293c-0.033-0.075-0.115-0.11-0.191-0.078
	l-0.587,0.247c-0.074,0.032-0.108,0.116-0.078,0.19l0.124,0.294c0.017,0.036,0.044,0.064,0.079,0.08
	c0.019,0.006,0.037,0.01,0.056,0.01c0.021,0,0.039-0.004,0.057-0.012L59.627,31.774z M54.137,36.188l0.044-0.316
	c0.006-0.038-0.006-0.077-0.029-0.107c-0.022-0.032-0.058-0.053-0.096-0.058l-1.079-0.148c-0.038-0.004-0.077,0.007-0.108,0.03
	c-0.03,0.022-0.051,0.058-0.057,0.096l-0.043,0.317c-0.005,0.038,0.005,0.077,0.027,0.107c0.023,0.031,0.059,0.051,0.098,0.055
	l1.079,0.149c0.008,0,0.013,0.001,0.021,0.001C54.066,36.314,54.126,36.261,54.137,36.188z M52.815,36.9l-0.172,0.27
	c-0.043,0.069-0.022,0.157,0.045,0.201l0.919,0.587c0.024,0.016,0.051,0.023,0.078,0.023c0.048,0,0.097-0.024,0.124-0.067
	l0.172-0.271c0.021-0.032,0.026-0.072,0.019-0.109c-0.009-0.037-0.031-0.072-0.063-0.092l-0.921-0.585
	C52.949,36.814,52.858,36.833,52.815,36.9z M58.159,40.687c-0.022,0.032-0.03,0.072-0.021,0.108
	c0.008,0.039,0.031,0.072,0.063,0.092l0.538,0.344c0.023,0.014,0.051,0.023,0.079,0.023c0.01,0,0.021-0.001,0.032-0.004
	c0.037-0.009,0.069-0.032,0.091-0.064l0.172-0.27c0.02-0.032,0.026-0.072,0.018-0.11c-0.007-0.038-0.029-0.071-0.062-0.091
	l-0.537-0.343c-0.069-0.042-0.157-0.023-0.2,0.045L58.159,40.687z M56.132,36.609c0.007,0,0.014,0.001,0.019,0.001
	c0.072,0,0.135-0.052,0.146-0.125l0.045-0.315c0.005-0.039-0.007-0.077-0.03-0.109c-0.021-0.03-0.058-0.05-0.095-0.055l-1.08-0.15
	c-0.038-0.004-0.077,0.005-0.108,0.029c-0.029,0.023-0.05,0.058-0.056,0.096l-0.043,0.317c-0.01,0.079,0.044,0.152,0.124,0.163
	L56.132,36.609z M56.321,39.515c-0.045,0.067-0.024,0.157,0.043,0.2l0.92,0.587c0.023,0.015,0.051,0.023,0.077,0.023
	c0.013,0,0.021-0.002,0.032-0.004c0.039-0.007,0.07-0.031,0.092-0.063l0.171-0.269c0.043-0.067,0.024-0.157-0.045-0.201
	l-0.918-0.587c-0.033-0.021-0.073-0.029-0.109-0.02c-0.039,0.008-0.071,0.031-0.091,0.064L56.321,39.515z M54.744,38.01
	c-0.037,0.007-0.07,0.031-0.09,0.064l-0.172,0.268c-0.043,0.067-0.024,0.157,0.043,0.201l0.92,0.587
	c0.024,0.014,0.052,0.023,0.079,0.023c0.011,0,0.021-0.001,0.032-0.003c0.036-0.008,0.07-0.031,0.091-0.064l0.17-0.271
	c0.044-0.068,0.024-0.156-0.044-0.199l-0.918-0.585C54.821,38.008,54.781,38.001,54.744,38.01z"/>
</svg>
