<?xml version="1.0" encoding="utf-8"?>
<!-- Generator: Adobe Illustrator 16.0.0, SVG Export Plug-In . SVG Version: 6.00 Build 0)  -->
<!DOCTYPE svg PUBLIC "-//W3C//DTD SVG 1.1//EN" "http://www.w3.org/Graphics/SVG/1.1/DTD/svg11.dtd" [
	<!ENTITY ns_extend "http://ns.adobe.com/Extensibility/1.0/">
	<!ENTITY ns_ai "http://ns.adobe.com/AdobeIllustrator/10.0/">
	<!ENTITY ns_graphs "http://ns.adobe.com/Graphs/1.0/">
	<!ENTITY ns_vars "http://ns.adobe.com/Variables/1.0/">
	<!ENTITY ns_imrep "http://ns.adobe.com/ImageReplacement/1.0/">
	<!ENTITY ns_sfw "http://ns.adobe.com/SaveForWeb/1.0/">
	<!ENTITY ns_custom "http://ns.adobe.com/GenericCustomNamespace/1.0/">
	<!ENTITY ns_adobe_xpath "http://ns.adobe.com/XPath/1.0/">
]>
<svg version="1.1" id="Icons" xmlns:x="&ns_extend;" xmlns:i="&ns_ai;" xmlns:graph="&ns_graphs;"
	 xmlns="http://www.w3.org/2000/svg" xmlns:xlink="http://www.w3.org/1999/xlink" x="0px" y="0px" width="100px" height="100px"
	 viewBox="0 0 100 100" enable-background="new 0 0 100 100" xml:space="preserve">
<metadata>
	<sfw  xmlns="&ns_sfw;">
		<slices></slices>
		<sliceSourceBounds  width="78.958" height="78.958" x="10.021" y="11.02" bottomLeftOrigin="true"></sliceSourceBounds>
	</sfw>
</metadata>
<rect x="22.334" y="22.335" transform="matrix(0.7071 -0.7071 0.7071 0.7071 -20.7114 50.0006)" fill="#807DBA" stroke="#000000" stroke-width="0.5" stroke-miterlimit="10" width="55.332" height="55.332"/>
<path fill="none" stroke="#FFFFFF" stroke-miterlimit="10" d="M50,88.766"/>
<g>
	<g>
		<path fill="#FFFFFF" d="M52.734,55.233c-0.188-0.206-0.427-0.361-0.676-0.492c-0.537-0.279-1.124-0.449-1.709-0.603v4.524
			c0.948-0.107,2.035-0.449,2.532-1.334l0,0c0.242-0.425,0.288-0.943,0.19-1.415C53.021,55.66,52.912,55.426,52.734,55.233z"/>
	</g>
	<g>
		<path d="M52.703,55.482c0.002-0.002,0.002-0.004,0.004-0.008l0,0C52.705,55.479,52.703,55.48,52.703,55.482z"/>
	</g>
	<g>
		<path fill="#FFFFFF" d="M45.904,48c-0.163,0.236-0.265,0.507-0.293,0.795c-0.029,0.287-0.011,0.607,0.097,0.879
			c0.104,0.256,0.322,0.449,0.547,0.603c0.252,0.172,0.531,0.306,0.814,0.418c0.237,0.097,0.504,0.187,0.793,0.276v-4.095
			C47.134,47.033,46.34,47.364,45.904,48z"/>
	</g>
	<g>
		<path d="M52.725,55.449c-0.006,0.009-0.01,0.017-0.018,0.025l0,0C52.715,55.464,52.721,55.457,52.725,55.449z"/>
	</g>
	<g>
		<path d="M52.744,55.415C52.744,55.412,52.744,55.412,52.744,55.415L52.744,55.415z"/>
	</g>
	<g>
		<path fill="#FFFFFF" d="M51.953,35.697c3.086-2.59,5.145-8.424,3.879-8.679c-1.686-0.34-5.343,1.147-7.111,1.41
			c-2.508,0.303-5.238-2.719-6.771-1.035c-1.247,1.37,0.894,6.35,4.241,8.52c-9.988,4.909-24.028,29.554,0.464,31.339
			C80.545,69.727,63.576,40.48,51.953,35.697z M55.579,56.899c-0.129,1.198-0.766,2.283-1.717,3.02
			c-1.004,0.778-2.262,1.139-3.513,1.241v1.325c0,0.354-0.154,0.698-0.419,0.934c-0.365,0.322-0.901,0.399-1.344,0.198
			c-0.438-0.2-0.724-0.651-0.724-1.132v-1.449c-0.215-0.039-0.429-0.087-0.637-0.146c-1.169-0.322-2.252-0.945-3.045-1.873
			c-0.394-0.46-0.716-0.984-0.938-1.55c-0.056-0.146-0.108-0.298-0.155-0.448c-0.042-0.139-0.085-0.28-0.097-0.423
			c-0.026-0.241,0.021-0.485,0.134-0.701c0.231-0.442,0.717-0.705,1.212-0.662c0.489,0.042,0.917,0.384,1.071,0.847
			c0.046,0.144,0.08,0.292,0.132,0.433c0.052,0.143,0.117,0.279,0.192,0.409c0.147,0.256,0.333,0.493,0.546,0.701
			c0.439,0.421,0.998,0.697,1.584,0.861v-4.923c-1.141-0.295-2.321-0.678-3.264-1.411c-0.458-0.357-0.848-0.798-1.102-1.324
			c-0.267-0.552-0.379-1.169-0.383-1.781c-0.003-0.622,0.114-1.237,0.374-1.804c0.242-0.53,0.592-1.005,1.021-1.401
			c0.916-0.843,2.132-1.314,3.355-1.486v-0.107v-1.267c0-0.354,0.155-0.698,0.421-0.933c0.365-0.323,0.9-0.402,1.343-0.198
			c0.438,0.2,0.725,0.65,0.725,1.131v1.267v0.101c0.163,0.02,0.324,0.044,0.485,0.074c1.199,0.217,2.374,0.713,3.251,1.576
			c0.415,0.41,0.755,0.898,0.992,1.429c0.069,0.149,0.129,0.302,0.18,0.457c0.046,0.143,0.093,0.292,0.116,0.443
			c0.038,0.242,0,0.491-0.104,0.709c-0.209,0.45-0.682,0.739-1.183,0.718c-0.487-0.022-0.931-0.342-1.104-0.8
			c-0.051-0.135-0.077-0.279-0.137-0.414c-0.051-0.137-0.121-0.27-0.202-0.391c-0.156-0.242-0.355-0.447-0.587-0.618
			c-0.498-0.368-1.103-0.56-1.707-0.667v4.711c0.718,0.172,1.436,0.357,2.127,0.632c1.042,0.408,2.028,1.039,2.594,2.03
			c-0.088-0.155-0.173-0.305,0.002,0.005c0.176,0.305,0.093,0.159,0.005,0.007C55.527,55.044,55.677,55.995,55.579,56.899z"/>
	</g>
	<g>
		<path d="M52.693,55.502c-0.006,0.01-0.01,0.02-0.017,0.025C52.682,55.521,52.688,55.514,52.693,55.502z"/>
	</g>
</g>
</svg>
