<?xml version="1.0" encoding="utf-8"?>
<!-- Generator: Adobe Illustrator 16.0.0, SVG Export Plug-In . SVG Version: 6.00 Build 0)  -->
<!DOCTYPE svg PUBLIC "-//W3C//DTD SVG 1.1//EN" "http://www.w3.org/Graphics/SVG/1.1/DTD/svg11.dtd" [
	<!ENTITY ns_extend "http://ns.adobe.com/Extensibility/1.0/">
	<!ENTITY ns_ai "http://ns.adobe.com/AdobeIllustrator/10.0/">
	<!ENTITY ns_graphs "http://ns.adobe.com/Graphs/1.0/">
	<!ENTITY ns_vars "http://ns.adobe.com/Variables/1.0/">
	<!ENTITY ns_imrep "http://ns.adobe.com/ImageReplacement/1.0/">
	<!ENTITY ns_sfw "http://ns.adobe.com/SaveForWeb/1.0/">
	<!ENTITY ns_custom "http://ns.adobe.com/GenericCustomNamespace/1.0/">
	<!ENTITY ns_adobe_xpath "http://ns.adobe.com/XPath/1.0/">
]>
<svg version="1.1" id="Capa_1" xmlns:x="&ns_extend;" xmlns:i="&ns_ai;" xmlns:graph="&ns_graphs;"
	 xmlns="http://www.w3.org/2000/svg" xmlns:xlink="http://www.w3.org/1999/xlink" x="0px" y="0px" width="41.585px"
	 height="45.438px" viewBox="0 0 41.585 45.438" enable-background="new 0 0 41.585 45.438" xml:space="preserve">
<metadata>
	<sfw  xmlns="&ns_sfw;">
		<slices></slices>
		<sliceSourceBounds  width="38.544" height="41.929" x="30.229" y="29.536" bottomLeftOrigin="true"></sliceSourceBounds>
	</sfw>
</metadata>
<rect x="7.167" y="9.719" fill="#FFFFFF" stroke="#FFFFFF" stroke-miterlimit="10" width="26.75" height="14.875"/>
<path fill="#FFFFFF" stroke="#FFFFFF" stroke-miterlimit="10" d="M9.71,43.183c-1.614,0-2.927-1.08-2.927-2.407v-2.157H5.78
	c-0.066,0.012-0.173,0.025-0.304,0.025c-0.445,0-1.899-0.187-1.899-2.582C3.323,33.095,3.158,26.85,3.33,20.621
	c-0.795-0.438-1.309-1.281-1.309-2.2v-3.905c0-1.13,0.758-2.104,1.819-2.409c0.351-3.354,0.832-5.481,1.467-6.499
	c1.549-2.474,8.618-3.354,14.717-3.354c6.53,0,13.978,1.019,15.9,3.297c0.796,0.945,1.366,3.085,1.743,6.537
	c1.105,0.275,1.896,1.254,1.897,2.425v3.906c0,0.97-0.551,1.832-1.404,2.248c0.105,4.625,0.041,9.4-0.006,12.91
	c-0.02,1.473-0.036,2.724-0.036,3.647c-0.047,0.465-0.342,1.421-2.112,1.421l0,0c-0.214,0-0.387-0.015-0.472-0.024v2.155
	c0,1.327-1.312,2.407-2.926,2.407c-1.614,0-2.927-1.08-2.927-2.407v-2.157H12.638v2.158C12.638,42.103,11.325,43.183,9.71,43.183z
	 M29.652,30.298c-1.153,0-2.092,0.937-2.092,2.088c0,1.153,0.938,2.091,2.092,2.091c1.152,0,2.09-0.938,2.09-2.091
	C31.742,31.235,30.804,30.298,29.652,30.298z M11.788,30.298c-1.152,0-2.089,0.937-2.089,2.088c0,1.153,0.937,2.091,2.089,2.091
	c1.153,0,2.091-0.938,2.091-2.091C13.879,31.235,12.941,30.298,11.788,30.298z M32.444,23.141V11.232H8.833v11.909H32.444z
	 M29.248,8.703V6.947h-17.22v1.757H29.248z"/>
<path fill="#1C5BA6" stroke="#FFFFFF" stroke-width="0.5" stroke-miterlimit="10" d="M37.21,12.518
	c-0.326-3.188-0.846-5.667-1.668-6.645c-3.385-4.011-27.114-4.305-29.811,0c-0.659,1.055-1.121,3.527-1.431,6.649
	c-1,0.119-1.78,0.961-1.78,1.993v3.905c0,0.867,0.55,1.599,1.318,1.885C3.657,26.455,3.805,32.87,4.077,36.062
	c0,2.464,1.655,2.057,1.655,2.057h1.551v2.657c0,1.055,1.087,1.907,2.427,1.907c1.341,0,2.428-0.854,2.428-1.907v-2.658h18.044
	v2.657c0,1.055,1.086,1.907,2.427,1.907c1.34,0,2.426-0.854,2.426-1.907v-2.657h0.51c0,0,1.949,0.267,2.074-0.895
	c0-3.183,0.198-10.232,0.034-16.892c0.815-0.255,1.412-1.007,1.412-1.913v-3.905C39.064,13.459,38.248,12.603,37.21,12.518z
	 M11.528,6.447h18.22v2.757h-18.22V6.447z M11.788,34.977c-1.431,0-2.589-1.159-2.589-2.591c0-1.43,1.159-2.588,2.589-2.588
	c1.43,0,2.591,1.158,2.591,2.588C14.379,33.817,13.22,34.977,11.788,34.977z M29.652,34.977c-1.43,0-2.592-1.159-2.592-2.591
	c0-1.43,1.16-2.588,2.592-2.588c1.43,0,2.59,1.158,2.59,2.588C32.242,33.817,31.082,34.977,29.652,34.977z M32.944,23.641H8.333
	V10.732h24.611V23.641z"/>
<rect x="8.292" y="10.732" fill="none" width="24.901" height="13.487"/>
<text id="bus_number" transform="matrix(1 0 0 1 8.2925 19.2517)" font-family="Helvetica" font-size="12">177</text>
</svg>
