<?xml version="1.0" encoding="utf-8"?>
<!-- Generator: Adobe Illustrator 16.0.0, SVG Export Plug-In . SVG Version: 6.00 Build 0)  -->
<!DOCTYPE svg PUBLIC "-//W3C//DTD SVG 1.1//EN" "http://www.w3.org/Graphics/SVG/1.1/DTD/svg11.dtd" [
	<!ENTITY ns_extend "http://ns.adobe.com/Extensibility/1.0/">
	<!ENTITY ns_ai "http://ns.adobe.com/AdobeIllustrator/10.0/">
	<!ENTITY ns_graphs "http://ns.adobe.com/Graphs/1.0/">
	<!ENTITY ns_vars "http://ns.adobe.com/Variables/1.0/">
	<!ENTITY ns_imrep "http://ns.adobe.com/ImageReplacement/1.0/">
	<!ENTITY ns_sfw "http://ns.adobe.com/SaveForWeb/1.0/">
	<!ENTITY ns_custom "http://ns.adobe.com/GenericCustomNamespace/1.0/">
	<!ENTITY ns_adobe_xpath "http://ns.adobe.com/XPath/1.0/">
]>
<svg version="1.1" id="Icons" xmlns:x="&ns_extend;" xmlns:i="&ns_ai;" xmlns:graph="&ns_graphs;"
	 xmlns="http://www.w3.org/2000/svg" xmlns:xlink="http://www.w3.org/1999/xlink" x="0px" y="0px" width="100px" height="100px"
	 viewBox="0 0 100 100" enable-background="new 0 0 100 100" xml:space="preserve">
<metadata>
	<sfw  xmlns="&ns_sfw;">
		<slices></slices>
		<sliceSourceBounds  x="18.124" y="4.736" width="63.826" height="91.527" bottomLeftOrigin="true"></sliceSourceBounds>
	</sfw>
</metadata>
<g id="XMLID_2_">
	<g>
		<path fill="#FFFFFF" fill-opacity="0.7" d="M48.835,93.436c-1.21-1.646-29.711-40.609-29.711-57.285
			c0-17.317,14.082-31.414,31.413-31.414c17.316,0,31.413,14.096,31.413,31.414c0,16.669-28.501,55.637-29.712,57.285L51.1,94.982
			c-0.127,0.184-0.338,0.281-0.562,0.281c-0.225,0-0.436-0.103-0.562-0.281L48.835,93.436z"/>
	</g>
	<g>
		<path fill="#3182BD" stroke="#3182BD" stroke-miterlimit="10" d="M50.537,4.737c-17.332,0-31.413,14.096-31.413,31.414
			c0,16.669,28.501,55.637,29.711,57.285l1.14,1.547c0.126,0.188,0.337,0.281,0.562,0.281c0.227,0,0.438-0.099,0.562-0.281
			l1.139-1.547C53.449,91.79,81.95,52.823,81.95,36.151C81.95,18.833,67.854,4.737,50.537,4.737z"/>
	</g>
</g>
<path fill="#FFFFFF" stroke="#3182BD" stroke-miterlimit="10" d="M70.009,21.545c-0.287,0-0.711,0.092-1.131,0.537L50.534,40.411
	L32.197,22.083c-0.423-0.445-0.843-0.537-1.132-0.537c-0.698,0-1.185,0.55-1.185,1.33v5.44c0,0.554,0.225,0.905,0.523,1.206
	c0.25,0.245,16.853,16.766,17.104,17.014c0.333,0.33,0.886,0.562,1.353,0.562h3.348c0.463,0,1.025-0.232,1.361-0.562
	c0.248-0.248,16.85-16.769,17.1-17.014c0.297-0.301,0.525-0.652,0.525-1.206v-5.44C71.194,22.095,70.706,21.545,70.009,21.545"/>
<path fill="#FFFFFF" stroke="#3182BD" stroke-miterlimit="10" d="M70.009,42.244c-0.287,0-0.711,0.089-1.131,0.531L50.534,61.1
	L32.197,42.774c-0.423-0.442-0.843-0.531-1.132-0.531c-0.698,0-1.185,0.546-1.185,1.321v5.446c0,0.551,0.225,0.904,0.523,1.205
	c0.25,0.248,16.853,16.763,17.104,17.011c0.333,0.328,0.886,0.561,1.353,0.561h3.348c0.463,0,1.025-0.23,1.361-0.561
	c0.248-0.248,16.85-16.763,17.1-17.011c0.297-0.301,0.525-0.654,0.525-1.205v-5.445C71.194,42.79,70.706,42.244,70.009,42.244"/>
</svg>
