<?xml version="1.0" encoding="utf-8"?>
<!-- Generator: Adobe Illustrator 16.0.0, SVG Export Plug-In . SVG Version: 6.00 Build 0)  -->
<!DOCTYPE svg PUBLIC "-//W3C//DTD SVG 1.1//EN" "http://www.w3.org/Graphics/SVG/1.1/DTD/svg11.dtd" [
	<!ENTITY ns_extend "http://ns.adobe.com/Extensibility/1.0/">
	<!ENTITY ns_ai "http://ns.adobe.com/AdobeIllustrator/10.0/">
	<!ENTITY ns_graphs "http://ns.adobe.com/Graphs/1.0/">
	<!ENTITY ns_vars "http://ns.adobe.com/Variables/1.0/">
	<!ENTITY ns_imrep "http://ns.adobe.com/ImageReplacement/1.0/">
	<!ENTITY ns_sfw "http://ns.adobe.com/SaveForWeb/1.0/">
	<!ENTITY ns_custom "http://ns.adobe.com/GenericCustomNamespace/1.0/">
	<!ENTITY ns_adobe_xpath "http://ns.adobe.com/XPath/1.0/">
]>
<svg version="1.1" id="Capa_1" xmlns:x="&ns_extend;" xmlns:i="&ns_ai;" xmlns:graph="&ns_graphs;"
	 xmlns="http://www.w3.org/2000/svg" xmlns:xlink="http://www.w3.org/1999/xlink" x="0px" y="0px" width="41.585px"
	 height="45.438px" viewBox="0 0 41.585 45.438" enable-background="new 0 0 41.585 45.438" xml:space="preserve">
<metadata>
	<sfw  xmlns="&ns_sfw;">
		<slices></slices>
		<sliceSourceBounds  width="39.583" height="39.584" y="30.708" x="29.708" bottomLeftOrigin="true"></sliceSourceBounds>
	</sfw>
</metadata>
<rect x="1.251" y="3.177" fill="#5A9ECC" stroke="#000000" stroke-width="0.5" stroke-miterlimit="10" width="39.083" height="39.084"/>
<path fill="#FFFFFF" stroke="#3182BD" stroke-width="0.5" stroke-miterlimit="10" d="M33.102,8.103c-0.181,0-0.45,0.059-0.715,0.34
	L20.791,20.03L9.199,8.444C8.932,8.162,8.666,8.104,8.484,8.104c-0.441,0-0.75,0.348-0.75,0.841v3.438
	c0,0.351,0.143,0.573,0.331,0.763c0.158,0.155,10.654,10.598,10.812,10.755c0.211,0.209,0.561,0.355,0.856,0.355h2.116
	c0.293,0,0.647-0.146,0.859-0.355c0.157-0.157,10.653-10.601,10.811-10.755c0.188-0.19,0.331-0.412,0.331-0.763V8.945
	C33.85,8.451,33.543,8.103,33.102,8.103"/>
<path fill="#FFFFFF" stroke="#3182BD" stroke-width="0.5" stroke-miterlimit="10" d="M33.102,21.188
	c-0.181,0-0.45,0.056-0.715,0.335L20.791,33.108L9.199,21.523c-0.268-0.279-0.533-0.335-0.715-0.335c-0.441,0-0.75,0.345-0.75,0.835
	v3.442c0,0.349,0.143,0.571,0.331,0.762c0.158,0.157,10.654,10.597,10.812,10.754c0.211,0.208,0.561,0.354,0.856,0.354h2.116
	c0.293,0,0.647-0.146,0.859-0.354c0.157-0.157,10.653-10.597,10.811-10.754c0.188-0.19,0.331-0.413,0.331-0.762v-3.442
	C33.85,21.533,33.543,21.188,33.102,21.188"/>
</svg>
