<?xml version="1.0" encoding="utf-8"?>
<!-- Generator: Adobe Illustrator 16.0.0, SVG Export Plug-In . SVG Version: 6.00 Build 0)  -->
<!DOCTYPE svg PUBLIC "-//W3C//DTD SVG 1.1//EN" "http://www.w3.org/Graphics/SVG/1.1/DTD/svg11.dtd" [
	<!ENTITY ns_extend "http://ns.adobe.com/Extensibility/1.0/">
	<!ENTITY ns_ai "http://ns.adobe.com/AdobeIllustrator/10.0/">
	<!ENTITY ns_graphs "http://ns.adobe.com/Graphs/1.0/">
	<!ENTITY ns_vars "http://ns.adobe.com/Variables/1.0/">
	<!ENTITY ns_imrep "http://ns.adobe.com/ImageReplacement/1.0/">
	<!ENTITY ns_sfw "http://ns.adobe.com/SaveForWeb/1.0/">
	<!ENTITY ns_custom "http://ns.adobe.com/GenericCustomNamespace/1.0/">
	<!ENTITY ns_adobe_xpath "http://ns.adobe.com/XPath/1.0/">
]>
<svg version="1.1" id="Icons" xmlns:x="&ns_extend;" xmlns:i="&ns_ai;" xmlns:graph="&ns_graphs;"
	 xmlns="http://www.w3.org/2000/svg" xmlns:xlink="http://www.w3.org/1999/xlink" x="0px" y="0px" width="100px" height="100px"
	 viewBox="0 0 100 100" enable-background="new 0 0 100 100" xml:space="preserve">
<metadata>
	<sfw  xmlns="&ns_sfw;">
		<slices></slices>
		<sliceSourceBounds  x="18.624" y="5.236" width="62.826" height="90.527" bottomLeftOrigin="true"></sliceSourceBounds>
	</sfw>
</metadata>
<g id="XMLID_2_">
	<g>
		<path fill="#FFFFFF" fill-opacity="0.7" d="M48.835,93.436c-1.21-1.646-29.711-40.607-29.711-57.285
			c0-17.317,14.082-31.414,31.413-31.414c17.316,0,31.413,14.096,31.413,31.414c0,16.669-28.501,55.637-29.712,57.285L51.1,94.982
			c-0.127,0.184-0.338,0.281-0.562,0.281c-0.225,0-0.436-0.104-0.562-0.281L48.835,93.436z"/>
	</g>
	<g>
		<path fill="#CBAD5D" d="M50.537,4.737c-17.332,0-31.413,14.096-31.413,31.414c0,16.669,28.501,55.637,29.711,57.285l1.14,1.547
			c0.126,0.188,0.337,0.281,0.562,0.281c0.227,0,0.438-0.099,0.562-0.281l1.139-1.547C53.449,91.79,81.95,52.823,81.95,36.151
			C81.95,18.833,67.854,4.737,50.537,4.737z"/>
	</g>
</g>
<line fill="none" x1="40.167" y1="28.75" x2="47.333" y2="28.75"/>
<g>
	<path fill="#FFFFFF" d="M45.14,56.221h10.793c0.895,0,1.617-0.724,1.617-1.615c0-0.895-0.724-1.616-1.617-1.616H45.14
		c-0.894,0-1.616,0.723-1.616,1.616C43.523,55.497,44.246,56.221,45.14,56.221z"/>
	<path fill="#FFFFFF" d="M45.14,60.796h10.793c0.895,0,1.617-0.723,1.617-1.614c0-0.895-0.724-1.617-1.617-1.617H45.14
		c-0.894,0-1.616,0.724-1.616,1.617C43.523,60.073,44.246,60.796,45.14,60.796z"/>
	<path fill="#FFFFFF" d="M50.537,12.575c-8.929,0-16.166,7.236-16.166,16.165c0,5.673,2.957,10.61,7.384,13.493
		c0.38,0.247,0.699,0.8,0.699,1.252v4.652c0,1.789,1.446,3.233,3.232,3.233h9.701c1.783,0,3.231-1.446,3.231-3.233v-4.652
		c0-0.454,0.319-1.005,0.698-1.252c4.428-2.879,7.385-7.82,7.385-13.493C66.702,19.812,59.467,12.575,50.537,12.575z"/>
</g>
<rect x="42.615" y="19.105" fill="none" width="15.844" height="19.289"/>
<text transform="matrix(1 0 0 1 43.5239 37.0811)" fill="#CBAD5D" font-family="'Helvetica'" font-size="25">2</text>
</svg>
