<?xml version="1.0" encoding="utf-8"?>
<!-- Generator: Adobe Illustrator 16.0.0, SVG Export Plug-In . SVG Version: 6.00 Build 0)  -->
<!DOCTYPE svg PUBLIC "-//W3C//DTD SVG 1.1//EN" "http://www.w3.org/Graphics/SVG/1.1/DTD/svg11.dtd" [
	<!ENTITY ns_extend "http://ns.adobe.com/Extensibility/1.0/">
	<!ENTITY ns_ai "http://ns.adobe.com/AdobeIllustrator/10.0/">
	<!ENTITY ns_graphs "http://ns.adobe.com/Graphs/1.0/">
	<!ENTITY ns_vars "http://ns.adobe.com/Variables/1.0/">
	<!ENTITY ns_imrep "http://ns.adobe.com/ImageReplacement/1.0/">
	<!ENTITY ns_sfw "http://ns.adobe.com/SaveForWeb/1.0/">
	<!ENTITY ns_custom "http://ns.adobe.com/GenericCustomNamespace/1.0/">
	<!ENTITY ns_adobe_xpath "http://ns.adobe.com/XPath/1.0/">
]>
<svg version="1.1" id="Icons" xmlns:x="&ns_extend;" xmlns:i="&ns_ai;" xmlns:graph="&ns_graphs;"
	 xmlns="http://www.w3.org/2000/svg" xmlns:xlink="http://www.w3.org/1999/xlink" x="0px" y="0px" width="100px" height="100px"
	 viewBox="0 0 100 100" enable-background="new 0 0 100 100" xml:space="preserve">
<metadata>
	<sfw  xmlns="&ns_sfw;">
		<slices></slices>
		<sliceSourceBounds  width="78.958" height="78.958" y="11.02" x="10.021" bottomLeftOrigin="true"></sliceSourceBounds>
	</sfw>
</metadata>
<rect x="22.334" y="22.335" transform="matrix(0.7071 -0.7071 0.7071 0.7071 -20.7114 50.0006)" fill="#FCA33C" stroke="#000000" stroke-width="0.5" stroke-miterlimit="10" width="55.332" height="55.332"/>
<path fill="none" stroke="#000000" stroke-width="0.5" stroke-miterlimit="10" d="M46.417,67.021"/>
<path fill="none" stroke="#FFFFFF" stroke-miterlimit="10" d="M19.851,58.631"/>
<path fill="none" stroke="#FFFFFF" stroke-miterlimit="10" d="M50,88.766"/>
<g>
	<path fill="#FFFFFF" d="M46.199,63.76h7.603c0.63,0,1.138-0.51,1.138-1.137c0-0.631-0.51-1.139-1.138-1.139h-7.603
		c-0.63,0-1.139,0.51-1.139,1.139C45.059,63.25,45.569,63.76,46.199,63.76z"/>
	<path fill="#FFFFFF" d="M46.199,66.982h7.603c0.63,0,1.138-0.508,1.138-1.137c0-0.63-0.51-1.14-1.138-1.14h-7.603
		c-0.63,0-1.139,0.51-1.139,1.14C45.059,66.475,45.569,66.982,46.199,66.982z"/>
	<path fill="#FFFFFF" d="M50,33.019c-6.29,0-11.387,5.097-11.387,11.386c0,3.996,2.083,7.472,5.201,9.503
		c0.268,0.174,0.493,0.564,0.493,0.881v3.277c0,1.26,1.018,2.276,2.276,2.276h6.833c1.256,0,2.275-1.02,2.275-2.276v-3.277
		c0-0.318,0.225-0.707,0.492-0.881c3.118-2.027,5.2-5.508,5.2-9.503C61.385,38.116,56.29,33.019,50,33.019z"/>
</g>
<text transform="matrix(0.7734 0 0 1 45.5835 51.9424)" fill="#FCA33C" font-family="'Helvetica'" font-size="20">2</text>
</svg>
