<?xml version="1.0" encoding="utf-8"?>
<!-- Generator: Adobe Illustrator 16.0.0, SVG Export Plug-In . SVG Version: 6.00 Build 0)  -->
<!DOCTYPE svg PUBLIC "-//W3C//DTD SVG 1.1//EN" "http://www.w3.org/Graphics/SVG/1.1/DTD/svg11.dtd" [
	<!ENTITY ns_extend "http://ns.adobe.com/Extensibility/1.0/">
	<!ENTITY ns_ai "http://ns.adobe.com/AdobeIllustrator/10.0/">
	<!ENTITY ns_graphs "http://ns.adobe.com/Graphs/1.0/">
	<!ENTITY ns_vars "http://ns.adobe.com/Variables/1.0/">
	<!ENTITY ns_imrep "http://ns.adobe.com/ImageReplacement/1.0/">
	<!ENTITY ns_sfw "http://ns.adobe.com/SaveForWeb/1.0/">
	<!ENTITY ns_custom "http://ns.adobe.com/GenericCustomNamespace/1.0/">
	<!ENTITY ns_adobe_xpath "http://ns.adobe.com/XPath/1.0/">
]>
<svg version="1.1" id="Icons" xmlns:x="&ns_extend;" xmlns:i="&ns_ai;" xmlns:graph="&ns_graphs;"
	 xmlns="http://www.w3.org/2000/svg" xmlns:xlink="http://www.w3.org/1999/xlink" x="0px" y="0px" width="100px" height="100px"
	 viewBox="0 0 100 100" enable-background="new 0 0 100 100" xml:space="preserve">
<metadata>
	<sfw  xmlns="&ns_sfw;">
		<slices></slices>
		<sliceSourceBounds  x="18.624" y="5.236" width="62.826" height="90.527" bottomLeftOrigin="true"></sliceSourceBounds>
	</sfw>
</metadata>
<g id="XMLID_2_">
	<g>
		<path fill="#FFFFFF" fill-opacity="0.7" d="M48.835,93.436c-1.21-1.646-29.711-40.608-29.711-57.285
			c0-17.317,14.082-31.414,31.413-31.414c17.316,0,31.413,14.096,31.413,31.414c0,16.669-28.501,55.637-29.712,57.285L51.1,94.982
			c-0.127,0.184-0.338,0.281-0.562,0.281c-0.225,0-0.436-0.104-0.562-0.281L48.835,93.436z"/>
	</g>
	<g>
		<path fill="#4D4D4D" d="M50.537,4.737c-17.332,0-31.413,14.096-31.413,31.414c0,16.669,28.501,55.637,29.711,57.285l1.14,1.547
			c0.126,0.188,0.337,0.281,0.562,0.281c0.227,0,0.438-0.099,0.562-0.281l1.139-1.547C53.449,91.79,81.95,52.823,81.95,36.151
			C81.95,18.833,67.854,4.737,50.537,4.737z"/>
	</g>
</g>
<polygon fill="none" stroke="#FFFFFF" stroke-width="0.5" stroke-miterlimit="2.6131" points="50.054,12.086 71.819,50 
	28.181,49.985 50.054,12.086 "/>
<path fill="#FFFFFF" d="M64.549,47.566H35.574l-0.016-7.393c9.092-0.123,9.521,3.995,14.204,3.98
	c4.699-0.016,5.052-3.873,14.786-3.98V47.566L64.549,47.566z"/>
</svg>
