<?xml version="1.0" encoding="utf-8"?>
<!-- Generator: Adobe Illustrator 16.0.0, SVG Export Plug-In . SVG Version: 6.00 Build 0)  -->
<!DOCTYPE svg PUBLIC "-//W3C//DTD SVG 1.1//EN" "http://www.w3.org/Graphics/SVG/1.1/DTD/svg11.dtd" [
	<!ENTITY ns_extend "http://ns.adobe.com/Extensibility/1.0/">
	<!ENTITY ns_ai "http://ns.adobe.com/AdobeIllustrator/10.0/">
	<!ENTITY ns_graphs "http://ns.adobe.com/Graphs/1.0/">
	<!ENTITY ns_vars "http://ns.adobe.com/Variables/1.0/">
	<!ENTITY ns_imrep "http://ns.adobe.com/ImageReplacement/1.0/">
	<!ENTITY ns_sfw "http://ns.adobe.com/SaveForWeb/1.0/">
	<!ENTITY ns_custom "http://ns.adobe.com/GenericCustomNamespace/1.0/">
	<!ENTITY ns_adobe_xpath "http://ns.adobe.com/XPath/1.0/">
]>
<svg version="1.1" id="Icons" xmlns:x="&ns_extend;" xmlns:i="&ns_ai;" xmlns:graph="&ns_graphs;"
	 xmlns="http://www.w3.org/2000/svg" xmlns:xlink="http://www.w3.org/1999/xlink" x="0px" y="0px" width="100px" height="100px"
	 viewBox="0 0 100 100" enable-background="new 0 0 100 100" xml:space="preserve">
<metadata>
	<sfw  xmlns="&ns_sfw;">
		<slices></slices>
		<sliceSourceBounds  bottomLeftOrigin="true" width="79.044" height="79.043" y="10.935" x="10.021"></sliceSourceBounds>
	</sfw>
</metadata>
<rect x="22.334" y="22.336" transform="matrix(0.7071 -0.7071 0.7071 0.7071 -20.7119 50.0001)" display="none" fill="#807DBA" stroke="#000000" stroke-width="0.5" stroke-miterlimit="10" width="55.332" height="55.332"/>
<path fill="none" stroke="#000000" stroke-width="0.5" stroke-miterlimit="10" d="M46.417,67.021"/>
<path fill="none" stroke="#FFFFFF" stroke-miterlimit="10" d="M19.851,58.631"/>
<path fill="none" stroke="#FFFFFF" stroke-miterlimit="10" d="M50,88.766"/>
<g>
	<g>
		<path fill="#FFFFFF" d="M75.021,46.442c-0.069-0.969-0.151-2.065-0.312-3.011c-0.109-0.661-0.354-1.543-1.174-1.543
			c-0.081,0-0.163,0.009-0.245,0.018c-0.054,0.006-0.103,0.014-0.188,0.015c0,0-0.023-0.028-0.06-0.137
			c-0.241-0.765-1.25-1.715-2.545-2.877c-0.317-0.285-0.7-0.629-0.862-0.806c0.062-0.458,0.053-1.02-0.236-1.408
			c-0.133-0.181-0.385-0.396-0.815-0.396c-0.062,0-0.131,0.004-0.278,0.019c-0.313,0-0.938-0.143-1.808-0.341
			c-2.233-0.509-6.396-1.457-12.631-1.605c-9.083-0.2-16.22,7.069-16.513,7.376l-0.21,0.216c-0.373,0.201-1.551,0.678-5.15,1.464
			c-5.106,1.114-6.08,2.919-6.264,3.618c-0.407,0.337-1.067,1.142-1.172,2.088c-0.084,0.755-0.274,1.063-0.274,1.063l-0.087,0.127
			v5.331l0.01,0.098c0.277,1.415,1.6,2.164,3.825,2.164c0.71,0,1.242-0.08,1.221-0.08c0.031,0,0.305-0.007,0.781-0.02
			c-0.049-0.148-0.093-0.301-0.131-0.455c-0.037-0.146-0.07-0.297-0.097-0.448c-0.062-0.362-0.098-0.735-0.098-1.116
			c0-3.273,2.402-5.94,5.356-5.94c2.953,0,5.356,2.667,5.356,5.94c0,0.296-0.026,0.584-0.063,0.868
			c-0.021,0.151-0.045,0.31-0.076,0.458c-0.032,0.152-0.066,0.309-0.109,0.459c6.688-0.159,15.197-0.368,21.79-0.557
			c-0.025-0.146-0.048-0.301-0.062-0.453c-0.021-0.148-0.028-0.303-0.037-0.453c-0.006-0.107-0.016-0.217-0.016-0.322
			c0-3.273,2.399-5.94,5.354-5.94c2.911,0,5.28,2.588,5.35,5.804c0.001,0.046,0.009,0.092,0.009,0.137
			c0,0.115-0.014,0.229-0.019,0.341c-0.009,0.163-0.021,0.323-0.043,0.482c1.261-0.229,2.205-0.967,2.754-2.154
			c0.938-2.033,0.459-4.79,0.123-5.374C75.193,48.77,75.104,47.534,75.021,46.442z"/>
		<path fill="#FFFFFF" d="M30.906,57.794c0.698,1.778,2.295,3.022,4.156,3.022c1.929,0,3.571-1.338,4.226-3.219
			c0.052-0.15,0.098-0.308,0.137-0.463c0.038-0.146,0.07-0.303,0.095-0.455c0.046-0.289,0.075-0.588,0.075-0.892
			c0-2.774-2.029-5.024-4.532-5.024s-4.532,2.25-4.532,5.024c0,0.377,0.04,0.741,0.111,1.097c0.03,0.152,0.066,0.307,0.11,0.452
			C30.797,57.495,30.849,57.646,30.906,57.794z"/>
		<path fill="#FFFFFF" d="M62.807,57c0.487,2.189,2.27,3.816,4.396,3.816c2.224,0,4.066-1.775,4.455-4.117
			c0.021-0.151,0.044-0.305,0.058-0.46c0.013-0.148,0.021-0.298,0.021-0.448c0-0.004-0.002-0.008-0.002-0.012
			c-0.004-2.771-2.03-5.016-4.529-5.016c-2.504,0-4.532,2.25-4.532,5.024c0,0.103,0.011,0.198,0.015,0.3
			c0.008,0.153,0.021,0.309,0.043,0.455C62.744,56.699,62.771,56.852,62.807,57z"/>
	</g>
	<g>
		<path fill="#807DBA" d="M47.719,51.182h2.374v2.551h-2.374V51.182z M53.199,40.272c-0.619-0.546-1.772-0.82-3.46-0.82
			c-1.907,0-3.189,0.264-3.847,0.794c-0.657,0.528-0.985,1.557-0.985,3.085l-0.011,0.519h2.353l-0.01-0.539
			c0-0.733,0.155-1.224,0.467-1.469c0.31-0.245,0.932-0.369,1.866-0.369c0.997,0,1.638,0.117,1.923,0.348
			c0.288,0.232,0.432,0.749,0.432,1.552c0,0.967-0.383,1.61-1.151,1.928l-0.921,0.394c-0.967,0.402-1.565,0.791-1.793,1.168
			c-0.227,0.376-0.341,1.152-0.341,2.329h2.405v-0.333c0-0.725,0.509-1.302,1.523-1.731c1.043-0.443,1.72-0.897,2.021-1.362
			c0.305-0.467,0.456-1.284,0.456-2.453C54.127,41.831,53.816,40.818,53.199,40.272z"/>
	</g>
</g>
<circle fill="#1F7B35" stroke="#000000" stroke-width="0.5" stroke-miterlimit="10" cx="50.094" cy="50.096" r="39.22"/>
<g>
	<path fill="#FFFFFF" d="M40.778,43.061V71.77c0,0.749,0.273,1.396,0.82,1.943c0.538,0.537,1.174,0.809,1.907,0.816
		c0.732-0.008,1.369-0.279,1.907-0.816c0.547-0.547,0.82-1.194,0.82-1.943V43.061c0.819-0.287,3.895-3.028,3.895-3.907V27.606
		c0-0.374-0.137-0.697-0.41-0.971c-0.273-0.273-0.597-0.41-0.971-0.41s-0.698,0.137-0.971,0.41c-0.274,0.274-0.41,0.598-0.41,0.971
		v8.979c0,0.374-0.138,0.697-0.41,0.971c-0.273,0.273-0.598,0.409-0.972,0.409s-0.697-0.136-0.971-0.409s-0.41-0.597-0.41-0.971
		v-8.979c0-0.374-0.137-0.697-0.41-0.971c-0.273-0.273-0.597-0.41-0.971-0.41c-0.375,0-0.698,0.137-0.972,0.41
		c-0.273,0.274-0.41,0.598-0.41,0.971v8.979c0,0.374-0.137,0.697-0.41,0.971s-0.597,0.409-0.971,0.409
		c-0.375,0-0.698-0.136-0.971-0.409c-0.274-0.273-0.411-0.597-0.411-0.971v-8.979c0-0.374-0.136-0.697-0.41-0.971
		c-0.273-0.273-0.597-0.41-0.971-0.41c-0.375,0-0.698,0.137-0.971,0.41c-0.273,0.274-0.41,0.598-0.41,0.971v11.547
		C36.316,40.031,39.958,42.772,40.778,43.061z"/>
	<path fill="#1D1D1B" d="M43.541,74.532c-0.012,0-0.023-0.004-0.035-0.004s-0.022,0.004-0.035,0.004H43.541z"/>
	<path fill="#1D1D1B" d="M61.179,75.099c-0.012,0-0.023-0.003-0.035-0.003c-0.011,0-0.022,0.003-0.034,0.003H61.179z"/>
	<path fill="#FFFFFF" d="M55.281,49.955h3.136v22.381c0,0.749,0.272,1.396,0.82,1.943c0.537,0.537,1.174,0.809,1.906,0.816
		c0.733-0.008,1.37-0.279,1.908-0.816c0.547-0.547,0.82-1.194,0.82-1.943V26.473c0-0.373-0.137-0.697-0.41-0.971
		c-0.273-0.273-0.598-0.41-0.972-0.41h-0.992c-1.899,0-3.525,0.676-4.878,2.028c-1.353,1.353-2.028,2.979-2.028,4.878v17.266
		c0,0.188,0.068,0.35,0.205,0.485C54.933,49.887,55.095,49.955,55.281,49.955z"/>
</g>
</svg>
