<?xml version="1.0" encoding="utf-8"?>
<!-- Generator: Adobe Illustrator 16.0.0, SVG Export Plug-In . SVG Version: 6.00 Build 0)  -->
<!DOCTYPE svg PUBLIC "-//W3C//DTD SVG 1.1//EN" "http://www.w3.org/Graphics/SVG/1.1/DTD/svg11.dtd" [
	<!ENTITY ns_extend "http://ns.adobe.com/Extensibility/1.0/">
	<!ENTITY ns_ai "http://ns.adobe.com/AdobeIllustrator/10.0/">
	<!ENTITY ns_graphs "http://ns.adobe.com/Graphs/1.0/">
	<!ENTITY ns_vars "http://ns.adobe.com/Variables/1.0/">
	<!ENTITY ns_imrep "http://ns.adobe.com/ImageReplacement/1.0/">
	<!ENTITY ns_sfw "http://ns.adobe.com/SaveForWeb/1.0/">
	<!ENTITY ns_custom "http://ns.adobe.com/GenericCustomNamespace/1.0/">
	<!ENTITY ns_adobe_xpath "http://ns.adobe.com/XPath/1.0/">
]>
<svg version="1.1" id="Icons" xmlns:x="&ns_extend;" xmlns:i="&ns_ai;" xmlns:graph="&ns_graphs;"
	 xmlns="http://www.w3.org/2000/svg" xmlns:xlink="http://www.w3.org/1999/xlink" x="0px" y="0px" width="100px" height="100px"
	 viewBox="0 0 100 100" enable-background="new 0 0 100 100" xml:space="preserve">
<metadata>
	<sfw  xmlns="&ns_sfw;">
		<slices></slices>
		<sliceSourceBounds  bottomLeftOrigin="true" width="78.94" height="78.94" y="10.934" x="10.124"></sliceSourceBounds>
	</sfw>
</metadata>
<circle fill="#00294C" stroke="#000000" stroke-width="0.5" stroke-miterlimit="10" cx="50.094" cy="50.096" r="39.22"/>
<g>
	<path fill="#FFFFFF" d="M41.481,52.814c0,6.885-3.719,10.187-11.298,10.187c-7.579,0-11.333-3.303-11.333-10.187V37.588h7.648
		v13.523c0,2.538,0,5.701,3.72,5.701c3.615,0,3.615-3.163,3.615-5.701V37.588h7.647V52.814z"/>
	<path fill="#FFFFFF" d="M45.865,37.588h7.649V62.41h-7.649V37.588z"/>
	<path fill="#FFFFFF" d="M73.607,46.836c-0.141-0.904-0.836-3.651-3.998-3.651c-3.58,0-4.729,3.477-4.729,6.814
		c0,3.336,1.148,6.814,4.729,6.814c2.572,0,3.58-1.808,4.031-4.138h7.51c0,5.007-4.066,10.326-11.332,10.326
		c-8.031,0-12.586-5.667-12.586-13.002c0-7.822,4.938-13.002,12.586-13.002c6.814,0.035,10.57,3.615,11.229,9.838L73.607,46.836
		L73.607,46.836z"/>
</g>
</svg>
