<?xml version="1.0" encoding="utf-8"?>
<!-- Generator: Adobe Illustrator 16.0.0, SVG Export Plug-In . SVG Version: 6.00 Build 0)  -->
<!DOCTYPE svg PUBLIC "-//W3C//DTD SVG 1.1//EN" "http://www.w3.org/Graphics/SVG/1.1/DTD/svg11.dtd" [
	<!ENTITY ns_extend "http://ns.adobe.com/Extensibility/1.0/">
	<!ENTITY ns_ai "http://ns.adobe.com/AdobeIllustrator/10.0/">
	<!ENTITY ns_graphs "http://ns.adobe.com/Graphs/1.0/">
	<!ENTITY ns_vars "http://ns.adobe.com/Variables/1.0/">
	<!ENTITY ns_imrep "http://ns.adobe.com/ImageReplacement/1.0/">
	<!ENTITY ns_sfw "http://ns.adobe.com/SaveForWeb/1.0/">
	<!ENTITY ns_custom "http://ns.adobe.com/GenericCustomNamespace/1.0/">
	<!ENTITY ns_adobe_xpath "http://ns.adobe.com/XPath/1.0/">
]>
<svg version="1.1" id="Icons" xmlns:x="&ns_extend;" xmlns:i="&ns_ai;" xmlns:graph="&ns_graphs;"
	 xmlns="http://www.w3.org/2000/svg" xmlns:xlink="http://www.w3.org/1999/xlink" x="0px" y="0px" width="100px" height="100px"
	 viewBox="0 0 100 100" enable-background="new 0 0 100 100" xml:space="preserve">
<metadata>
	<sfw  xmlns="&ns_sfw;">
		<slices></slices>
		<sliceSourceBounds  x="18.624" y="5.236" width="62.826" height="90.527" bottomLeftOrigin="true"></sliceSourceBounds>
	</sfw>
</metadata>
<g id="XMLID_2_">
	<g>
		<path fill="#FFFFFF" fill-opacity="0.7" d="M48.835,93.436c-1.21-1.646-29.711-40.608-29.711-57.285
			c0-17.317,14.082-31.414,31.413-31.414c17.316,0,31.413,14.096,31.413,31.414c0,16.669-28.501,55.637-29.712,57.285L51.1,94.982
			c-0.127,0.184-0.338,0.281-0.562,0.281c-0.225,0-0.436-0.104-0.562-0.281L48.835,93.436z"/>
	</g>
	<g>
		<path fill="#8C510A" d="M50.537,4.737c-17.332,0-31.413,14.096-31.413,31.414c0,16.669,28.501,55.637,29.711,57.285l1.14,1.547
			c0.126,0.188,0.337,0.281,0.562,0.281c0.227,0,0.438-0.099,0.562-0.281l1.139-1.547C53.449,91.79,81.95,52.823,81.95,36.151
			C81.95,18.833,67.854,4.737,50.537,4.737z"/>
	</g>
</g>
<g>
	<path fill="#FFFFFF" d="M78.178,32.247c-0.079-1.07-0.169-2.281-0.344-3.326c-0.122-0.73-0.391-1.704-1.296-1.704
		c-0.09,0-0.18,0.01-0.27,0.02c-0.058,0.006-0.112,0.015-0.205,0.016c-0.001,0-0.03-0.031-0.067-0.152
		c-0.267-0.844-1.381-1.894-2.811-3.178c-0.351-0.315-0.773-0.695-0.952-0.89c0.066-0.506,0.057-1.127-0.262-1.555
		c-0.147-0.199-0.425-0.438-0.903-0.438c-0.069,0-0.144,0.005-0.31,0.021c-0.347,0-1.038-0.157-1.994-0.376
		c-2.469-0.562-7.062-1.609-13.952-1.773c-10.032-0.221-17.915,7.808-18.239,8.147l-0.232,0.239
		c-0.412,0.221-1.713,0.749-5.689,1.617c-5.64,1.231-6.716,3.224-6.919,3.996c-0.45,0.372-1.179,1.261-1.295,2.307
		c-0.093,0.834-0.303,1.175-0.303,1.174l-0.097,0.141v5.887l0.011,0.106c0.306,1.563,1.767,2.39,4.225,2.39
		c0.784,0,1.372-0.089,1.349-0.089c0.034,0,0.337-0.007,0.863-0.019c-0.054-0.165-0.103-0.331-0.145-0.501
		c-0.041-0.164-0.078-0.329-0.107-0.499c-0.069-0.4-0.108-0.812-0.108-1.233c0-3.618,2.654-6.562,5.916-6.562
		s5.916,2.944,5.916,6.562c0,0.327-0.029,0.646-0.07,0.959c-0.023,0.17-0.049,0.34-0.084,0.506c-0.035,0.171-0.073,0.34-0.12,0.507
		c7.388-0.176,16.787-0.407,24.069-0.611c-0.032-0.164-0.054-0.333-0.073-0.503c-0.021-0.166-0.032-0.333-0.041-0.502
		c-0.005-0.119-0.016-0.235-0.016-0.356c0-3.618,2.653-6.562,5.916-6.562c3.217,0,5.836,2.863,5.909,6.411
		c0.001,0.051,0.007,0.101,0.007,0.151c0,0.127-0.011,0.251-0.018,0.377c-0.009,0.18-0.024,0.357-0.047,0.533
		c1.392-0.252,2.436-1.065,3.042-2.38c1.035-2.248,0.507-5.29,0.136-5.935C78.367,34.818,78.267,33.453,78.178,32.247z"/>
	<path fill="#FFFFFF" d="M29.448,44.785c0.771,1.965,2.535,3.34,4.591,3.34c2.13,0,3.944-1.478,4.667-3.557
		c0.057-0.166,0.108-0.335,0.152-0.507c0.042-0.165,0.077-0.334,0.105-0.506c0.051-0.319,0.083-0.646,0.083-0.982
		c0-3.067-2.241-5.553-5.006-5.553s-5.006,2.486-5.006,5.553c0,0.416,0.044,0.82,0.123,1.211c0.033,0.169,0.073,0.336,0.122,0.5
		C29.328,44.455,29.385,44.621,29.448,44.785z"/>
	<path fill="#FFFFFF" d="M64.683,43.908c0.539,2.42,2.505,4.217,4.854,4.217c2.456,0,4.494-1.962,4.921-4.549
		c0.026-0.167,0.049-0.336,0.063-0.508c0.013-0.164,0.022-0.328,0.022-0.495c0-0.004-0.001-0.008-0.001-0.012
		c-0.005-3.061-2.244-5.541-5.005-5.541c-2.766,0-5.006,2.486-5.006,5.553c0,0.11,0.01,0.22,0.015,0.331
		c0.009,0.17,0.024,0.338,0.047,0.503C64.615,43.576,64.646,43.744,64.683,43.908z"/>
</g>
<g>
	<path fill="#8C510A" d="M48.019,37.482h2.622V40.3h-2.622V37.482z M54.072,25.432c-0.684-0.603-1.957-0.906-3.821-0.906
		c-2.107,0-3.523,0.292-4.249,0.877c-0.726,0.583-1.088,1.719-1.088,3.408l-0.012,0.573h2.599l-0.011-0.596
		c0-0.81,0.172-1.351,0.516-1.622c0.342-0.271,1.029-0.407,2.062-0.407c1.1,0,1.808,0.129,2.124,0.384
		c0.317,0.256,0.476,0.827,0.476,1.714c0,1.068-0.423,1.779-1.271,2.13l-1.021,0.435c-1.068,0.444-1.729,0.873-1.981,1.29
		c-0.251,0.416-0.377,1.273-0.377,2.572h2.657v-0.367c0-0.801,0.561-1.439,1.685-1.912c1.152-0.489,1.897-0.991,2.234-1.505
		c0.335-0.516,0.504-1.418,0.504-2.709C55.098,27.153,54.755,26.035,54.072,25.432z"/>
</g>
</svg>
