<?xml version="1.0" encoding="utf-8"?>
<!-- Generator: Adobe Illustrator 16.0.0, SVG Export Plug-In . SVG Version: 6.00 Build 0)  -->
<!DOCTYPE svg PUBLIC "-//W3C//DTD SVG 1.1//EN" "http://www.w3.org/Graphics/SVG/1.1/DTD/svg11.dtd" [
	<!ENTITY ns_extend "http://ns.adobe.com/Extensibility/1.0/">
	<!ENTITY ns_ai "http://ns.adobe.com/AdobeIllustrator/10.0/">
	<!ENTITY ns_graphs "http://ns.adobe.com/Graphs/1.0/">
	<!ENTITY ns_vars "http://ns.adobe.com/Variables/1.0/">
	<!ENTITY ns_imrep "http://ns.adobe.com/ImageReplacement/1.0/">
	<!ENTITY ns_sfw "http://ns.adobe.com/SaveForWeb/1.0/">
	<!ENTITY ns_custom "http://ns.adobe.com/GenericCustomNamespace/1.0/">
	<!ENTITY ns_adobe_xpath "http://ns.adobe.com/XPath/1.0/">
]>
<svg version="1.1" id="Layer_10" xmlns:x="&ns_extend;" xmlns:i="&ns_ai;" xmlns:graph="&ns_graphs;"
	 xmlns="http://www.w3.org/2000/svg" xmlns:xlink="http://www.w3.org/1999/xlink" x="0px" y="0px" width="100px" height="100px"
	 viewBox="0 0 100 100" enable-background="new 0 0 100 100" xml:space="preserve">
<metadata>
	<sfw  xmlns="&ns_sfw;">
		<slices></slices>
		<sliceSourceBounds  bottomLeftOrigin="true" width="62.569" height="51.842" y="24.579" x="18.215"></sliceSourceBounds>
	</sfw>
</metadata>
<path fill="#F6F6F6" d="M81.28,52.875c0-1.231-0.277-2.405-0.778-3.48c-0.054-0.273-0.111-0.547-0.185-0.823l-5.436-13.469
	l-0.036-0.122c-1.901-5.661-4.607-10.902-11.47-10.902h-26.23c-7.029,0-9.514,5.37-11.457,10.871l-5.685,13.502
	c-0.822,1.316-1.289,2.823-1.289,4.423v4.191c0,0.647,0.076,1.282,0.222,1.893c-0.141,0.369-0.222,0.767-0.222,1.187V72.61
	c0,1.828,1.481,3.311,3.31,3.311h6.869c1.826,0,3.309-1.482,3.309-3.311v-6.232h35.985v6.232c0,1.828,1.481,3.311,3.31,3.311h6.478
	c1.827,0,3.31-1.482,3.31-3.311V60.144c0-0.418-0.081-0.817-0.222-1.186c0.146-0.611,0.222-1.244,0.222-1.893v-4.19H81.28
	L81.28,52.875z M29.722,36.301c2.164-6.106,3.905-7.97,7.423-7.97h26.23c3.494,0,5.438,2.079,7.416,7.943l3.965,8.037
	c-1.294-0.479-2.721-0.746-4.218-0.746H29.457c-1.349,0-2.636,0.216-3.825,0.608L29.722,36.301z M33.129,58.658h-7.247
	c-1.305,0-2.363-1.059-2.363-2.363c0-1.307,1.058-2.364,2.363-2.364h7.247c1.305,0,2.363,1.058,2.363,2.364
	C35.493,57.6,34.434,58.658,33.129,58.658z M58.73,58.185H41.872c-0.827,0-1.496-0.67-1.496-1.496s0.669-1.496,1.496-1.496h16.856
	c0.828,0,1.496,0.67,1.496,1.496S59.557,58.185,58.73,58.185z M73.933,58.658h-7.247c-1.307,0-2.362-1.059-2.362-2.363
	c0-1.307,1.058-2.364,2.362-2.364h7.247c1.305,0,2.363,1.058,2.363,2.364C76.294,57.6,75.237,58.658,73.933,58.658z"/>
</svg>
