<?xml version="1.0" encoding="utf-8"?>
<!-- Generator: Adobe Illustrator 16.0.4, SVG Export Plug-In . SVG Version: 6.00 Build 0)  -->
<!DOCTYPE svg PUBLIC "-//W3C//DTD SVG 1.1//EN" "http://www.w3.org/Graphics/SVG/1.1/DTD/svg11.dtd">
<svg version="1.1" id="Layer_1" xmlns="http://www.w3.org/2000/svg" xmlns:xlink="http://www.w3.org/1999/xlink" x="0px" y="0px"
	 width="15px" height="24px" viewBox="0 0 15 24" enable-background="new 0 0 15 24" xml:space="preserve">
<path d="M14.91,13.414C14.743,13.782,14.38,14,13.999,14c-0.138,0-0.278-0.027-0.413-0.09l-3.3-1.5
	c-0.24-0.109-0.429-0.31-0.521-0.557l-0.551-1.456L8.5,13.9l1.686,2.68L10.8,17.4c0.054,0.07,0.097,0.146,0.13,0.229l2,5
	c0.204,0.514-0.046,1.096-0.559,1.301C12.25,23.979,12.124,24,12,24c-0.396,0-0.771-0.236-0.93-0.629l-1.864-4.665L5.7,15.2
	c0,0-1-0.8-0.7-2.2c0.2-0.6,0.6-2.5,0.9-4c0,0,0.023-0.146,0.066-0.365L3.685,9.776l-1.853,2.779C1.639,12.844,1.322,13,0.999,13
	c-0.19,0-0.383-0.055-0.554-0.168c-0.459-0.307-0.583-0.927-0.277-1.387l2-3C2.265,8.3,2.397,8.184,2.553,8.105l4-2
	C6.689,6.037,6.834,6.01,6.977,6.006C6.984,6.006,6.992,6,7,6c0.3,0,2,0,2,0s0.003,0.004,0.004,0.006
	c0.402,0.001,0.781,0.242,0.932,0.641l1.556,4.114l2.924,1.33C14.917,12.318,15.139,12.911,14.91,13.414z M9.5,5
	C10.881,5,12,3.881,12,2.5S10.881,0,9.5,0S7,1.119,7,2.5S8.119,5,9.5,5z M4.7,15.4l-0.663,3.217L1.2,22.4
	c-0.332,0.44-0.242,1.067,0.2,1.398C1.58,23.936,1.791,24,1.999,24c0.304,0,0.604-0.139,0.801-0.4l2.909-3.879
	C5.85,19.587,5.957,19.417,6,19.2l0.7-1.7L5.1,15.9C5,15.8,4.8,15.6,4.7,15.4z"/>
</svg>
