<?xml version="1.0" encoding="utf-8"?>
<!-- Generator: Adobe Illustrator 16.0.0, SVG Export Plug-In . SVG Version: 6.00 Build 0)  -->
<!DOCTYPE svg PUBLIC "-//W3C//DTD SVG 1.1//EN" "http://www.w3.org/Graphics/SVG/1.1/DTD/svg11.dtd" [
	<!ENTITY ns_extend "http://ns.adobe.com/Extensibility/1.0/">
	<!ENTITY ns_ai "http://ns.adobe.com/AdobeIllustrator/10.0/">
	<!ENTITY ns_graphs "http://ns.adobe.com/Graphs/1.0/">
	<!ENTITY ns_vars "http://ns.adobe.com/Variables/1.0/">
	<!ENTITY ns_imrep "http://ns.adobe.com/ImageReplacement/1.0/">
	<!ENTITY ns_sfw "http://ns.adobe.com/SaveForWeb/1.0/">
	<!ENTITY ns_custom "http://ns.adobe.com/GenericCustomNamespace/1.0/">
	<!ENTITY ns_adobe_xpath "http://ns.adobe.com/XPath/1.0/">
]>
<svg version="1.1" id="Layer_2" xmlns:x="&ns_extend;" xmlns:i="&ns_ai;" xmlns:graph="&ns_graphs;"
	 xmlns="http://www.w3.org/2000/svg" xmlns:xlink="http://www.w3.org/1999/xlink" x="0px" y="0px" width="100px" height="100px"
	 viewBox="0 0 100 100" enable-background="new 0 0 100 100" xml:space="preserve">
<metadata>
	<sfw  xmlns="&ns_sfw;">
		<slices></slices>
		<sliceSourceBounds  bottomLeftOrigin="true" width="81.786" height="81.826" y="9.587" x="8.708"></sliceSourceBounds>
	</sfw>
</metadata>
<path id="path3" fill="#FFFFFF" d="M89.493,50.052c0,21.754-17.584,39.361-39.342,39.361c-21.759,0-39.443-17.609-39.443-39.361
	c0-21.854,17.685-39.465,39.443-39.465C71.909,10.587,89.493,28.197,89.493,50.052"/>
<path id="path5" fill="none" stroke="#D31145" stroke-width="3" d="M89.493,50.052c0,21.754-17.584,39.361-39.342,39.361
	c-21.759,0-39.443-17.609-39.443-39.361c0-21.854,17.685-39.465,39.443-39.465C71.909,10.587,89.493,28.197,89.493,50.052z"/>
<path id="path7" fill="#0078C1" d="M85.817,50.052c0,19.682-15.996,35.633-35.666,35.633c-19.673,0-35.668-15.951-35.668-35.633
	c0-19.785,15.995-35.735,35.668-35.735C69.821,14.316,85.817,30.268,85.817,50.052"/>
<path id="path9" fill="#FFFFFF" d="M36.341,46.528c-0.298-0.412-0.895-0.518-1.689-0.518c-2.979,0-3.775,4.041-3.775,5.803
	c0,1.865,0.398,3.521,2.385,3.521c1.788,0,2.583-1.762,2.981-2.797h6.557c-1.191,5.387-4.471,7.977-9.637,7.977
	c-7.65,0-9.141-5.076-9.141-8.598c0-6.424,3.974-11.188,10.829-11.188c4.968,0,8.744,2.383,8.645,7.664h-6.657
	C36.938,47.462,36.738,46.944,36.341,46.528"/>
<path id="path11" fill="#FFFFFF" d="M54.821,54.817l-0.994,5.18c0,0-1.789,0.102-2.883,0.102c-1.39,0.104-3.376,0.209-4.47-0.414
	c-1.191-0.725-1.688-2.176-1.688-3.521c0-0.932,0.198-1.656,0.397-2.484l1.59-7.459h-2.981l0.895-4.352h2.98l1.093-5.488h6.757
	l-1.193,5.488h3.576l-0.893,4.352h-3.379l-1.191,5.904c0,0.311-0.199,1.141-0.199,1.762s0.695,0.932,1.092,0.932
	C54.423,54.817,55.019,54.817,54.821,54.817"/>
<path id="path13" fill="#FFFFFF" d="M64.655,55.749c-0.793,0.104-2.186,0-2.186-1.346c0-1.348,1.293-1.865,2.484-2.072
	c1.193-0.207,2.186-0.414,3.279-1.035C67.835,54.091,66.247,55.438,64.655,55.749 M67.438,40.521c-4.471,0-7.65,1.658-9.24,5.904
	h6.557c0.697-0.932,1.49-1.447,2.881-1.447c0.994-0.105,2.484,0,2.285,1.242c-0.297,1.346-3.477,1.863-5.363,1.967
	c-5.266,0.414-8.844,2.176-8.844,7.148c0,3.625,2.783,4.973,5.961,4.973c1.988,0,4.373-0.727,5.564-2.279h0.1l-0.398,1.969h6.559
	c0,0,2.781-11.5,2.781-14.398C76.28,41.04,70.716,40.521,67.438,40.521z"/>
<path id="path15" fill="#FFFFFF" d="M77.97,60.72c-0.994,0-1.889-0.723-1.889-1.863c0-1.035,0.895-1.863,1.889-1.863
	c0.992,0,1.887,0.828,1.887,1.863C79.856,59.997,78.962,60.72,77.97,60.72"/>
<path id="path17" fill="#0078C1" d="M77.97,57.304c-0.795,0-1.49,0.725-1.49,1.553c0,0.934,0.695,1.555,1.49,1.555
	c0.893,0,1.49-0.621,1.49-1.555C79.46,58.028,78.862,57.304,77.97,57.304"/>
<path id="path19" fill="#FFFFFF" d="M78.565,59.997l-0.596-0.934h-0.396v0.934h-0.299v-2.176h0.795c0.496,0,0.793,0.207,0.793,0.621
	c0,0.311-0.297,0.518-0.596,0.621l0.596,0.932h-0.297"/>
<path id="path21" fill="#0078C1" d="M78.466,58.442c0-0.311-0.199-0.414-0.396-0.414h-0.496v0.725h0.396
	C78.267,58.753,78.466,58.753,78.466,58.442"/>
</svg>
