<?xml version="1.0" encoding="utf-8"?>
<!-- Generator: Adobe Illustrator 16.0.0, SVG Export Plug-In . SVG Version: 6.00 Build 0)  -->
<!DOCTYPE svg PUBLIC "-//W3C//DTD SVG 1.1//EN" "http://www.w3.org/Graphics/SVG/1.1/DTD/svg11.dtd" [
	<!ENTITY ns_extend "http://ns.adobe.com/Extensibility/1.0/">
	<!ENTITY ns_ai "http://ns.adobe.com/AdobeIllustrator/10.0/">
	<!ENTITY ns_graphs "http://ns.adobe.com/Graphs/1.0/">
	<!ENTITY ns_vars "http://ns.adobe.com/Variables/1.0/">
	<!ENTITY ns_imrep "http://ns.adobe.com/ImageReplacement/1.0/">
	<!ENTITY ns_sfw "http://ns.adobe.com/SaveForWeb/1.0/">
	<!ENTITY ns_custom "http://ns.adobe.com/GenericCustomNamespace/1.0/">
	<!ENTITY ns_adobe_xpath "http://ns.adobe.com/XPath/1.0/">
]>
<svg version="1.1" id="Icons" xmlns:x="&ns_extend;" xmlns:i="&ns_ai;" xmlns:graph="&ns_graphs;"
	 xmlns="http://www.w3.org/2000/svg" xmlns:xlink="http://www.w3.org/1999/xlink" x="0px" y="0px" width="100px" height="100px"
	 viewBox="0 0 100 100" enable-background="new 0 0 100 100" xml:space="preserve">
<metadata>
	<sfw  xmlns="&ns_sfw;">
		<slices></slices>
		<sliceSourceBounds  bottomLeftOrigin="true" width="88.154" height="25.198" y="37.466" x="5.423"></sliceSourceBounds>
	</sfw>
</metadata>
<g>
	<path fill="#FFFFFF" d="M93.951,43.24c-0.137-0.21-0.387-0.33-0.688-0.33H91.08c-0.305,0-0.545,0.237-0.763,0.509l-6.337,7.645
		l-6.335-7.645c-0.218-0.271-0.458-0.511-0.762-0.511h-2.186c-0.3,0-0.55,0.122-0.687,0.331c-0.138,0.209-0.192,0.498-0.013,0.761
		l8.28,10.105v4.668c0,0.419,0.383,0.783,0.821,0.783h1.762c0.438,0,0.82-0.364,0.82-0.783v-4.668L93.963,44
		C94.143,43.738,94.088,43.449,93.951,43.24"/>
	<path fill="#FFFFFF" d="M18.662,56.19H9.329v-9.915h9.333c2.055,0,3.728,1.673,3.728,3.729v2.417
		C22.39,54.498,20.717,56.19,18.662,56.19 M18.662,42.909H6.7c-0.427,0-0.777,0.348-0.777,0.778v15.087
		c0,0.433,0.35,0.782,0.777,0.782h11.962c3.935,0,7.133-3.203,7.133-7.137v-2.416C25.795,46.092,22.597,42.909,18.662,42.909"/>
	<path fill="#FFFFFF" d="M44.978,46.275c0.415,0,0.779-0.382,0.779-0.817v-1.73c0-0.436-0.364-0.82-0.779-0.82H30.01
		c-0.417,0-0.78,0.384-0.78,0.82v1.73c0,0.435,0.363,0.817,0.78,0.817h5.779v9.915H30.01c-0.417,0-0.78,0.382-0.78,0.817v1.729
		c0,0.437,0.363,0.819,0.78,0.819h14.968c0.415,0,0.779-0.383,0.779-0.819v-1.729c0-0.436-0.364-0.817-0.779-0.817h-5.781v-9.915
		H44.978z"/>
	<path fill="#5A9ECC" d="M71.15,37.836c-0.157,0-0.388,0.05-0.615,0.293l-9.997,9.987l-9.992-9.987
		c-0.23-0.243-0.459-0.293-0.616-0.293c-0.381,0-0.646,0.3-0.646,0.725v2.964c0,0.302,0.123,0.493,0.284,0.657
		c0.137,0.134,9.184,9.137,9.32,9.271c0.182,0.18,0.484,0.307,0.738,0.307h1.824c0.252,0,0.559-0.127,0.741-0.307
		c0.136-0.135,9.182-9.138,9.317-9.271c0.162-0.164,0.286-0.355,0.286-0.657v-2.964C71.796,38.136,71.53,37.836,71.15,37.836"/>
	<path fill="#5A9ECC" d="M71.15,49.115c-0.157,0-0.388,0.049-0.615,0.29l-9.997,9.986l-9.992-9.986
		c-0.23-0.241-0.459-0.29-0.616-0.29c-0.381,0-0.646,0.298-0.646,0.72v2.968c0,0.3,0.123,0.492,0.284,0.656
		c0.137,0.136,9.184,9.135,9.32,9.27c0.182,0.18,0.484,0.306,0.738,0.306h1.824c0.252,0,0.559-0.125,0.741-0.306
		c0.136-0.135,9.182-9.134,9.317-9.27c0.162-0.164,0.286-0.356,0.286-0.656v-2.968C71.796,49.413,71.53,49.115,71.15,49.115"/>
</g>
</svg>
