<?xml version="1.0" encoding="utf-8"?>
<!-- Generator: Adobe Illustrator 16.0.0, SVG Export Plug-In . SVG Version: 6.00 Build 0)  -->
<!DOCTYPE svg PUBLIC "-//W3C//DTD SVG 1.1//EN" "http://www.w3.org/Graphics/SVG/1.1/DTD/svg11.dtd" [
	<!ENTITY ns_extend "http://ns.adobe.com/Extensibility/1.0/">
	<!ENTITY ns_ai "http://ns.adobe.com/AdobeIllustrator/10.0/">
	<!ENTITY ns_graphs "http://ns.adobe.com/Graphs/1.0/">
	<!ENTITY ns_vars "http://ns.adobe.com/Variables/1.0/">
	<!ENTITY ns_imrep "http://ns.adobe.com/ImageReplacement/1.0/">
	<!ENTITY ns_sfw "http://ns.adobe.com/SaveForWeb/1.0/">
	<!ENTITY ns_custom "http://ns.adobe.com/GenericCustomNamespace/1.0/">
	<!ENTITY ns_adobe_xpath "http://ns.adobe.com/XPath/1.0/">
]>
<svg version="1.1" id="Icons" xmlns:x="&ns_extend;" xmlns:i="&ns_ai;" xmlns:graph="&ns_graphs;"
	 xmlns="http://www.w3.org/2000/svg" xmlns:xlink="http://www.w3.org/1999/xlink" x="0px" y="0px" width="100px" height="100px"
	 viewBox="0 0 100 100" enable-background="new 0 0 100 100" xml:space="preserve">
<metadata>
	<sfw  xmlns="&ns_sfw;">
		<slices></slices>
		<sliceSourceBounds  bottomLeftOrigin="true" width="84.342" height="41.151" y="33.332" x="6.84"></sliceSourceBounds>
	</sfw>
</metadata>
<g id="layer1" transform="translate(-559.08003,-313.13162)">
	<g id="g6545" transform="matrix(3.9408543,0,0,3.9408543,-960.05773,-2371.0274)">
		<g id="g1338" transform="matrix(1.25,0,0,-1.25,-46.875,1061.1122)">
			<g>
				<defs>
					<rect id="SVGID_1_" x="313.768" y="273.967" width="84.341" height="41.151"/>
				</defs>
				<clipPath id="SVGID_2_">
					<use xlink:href="#SVGID_1_"  overflow="visible"/>
				</clipPath>
				<g id="g1340" clip-path="url(#SVGID_2_)">
					<g id="g1346" transform="translate(405.717,287.389)">
						<path id="path1348" fill="#FFFFFF" d="M-41.519,6.66c-0.109,0.083-0.127,0.095-0.785,0.312c0.57,0.14,0.594,0.155,0.695,0.221
							c0.229,0.155,0.351,0.412,0.333,0.69l-0.002,0.03c-0.046,0.447-0.621,1.29-1.009,1.479c-0.256,0.122-0.54,0.105-0.764-0.046
							c-0.105-0.07-0.119-0.079-0.552-0.67c-0.042,0.69-0.124,1.907-0.144,2.021l-0.004,0.026l-0.007,0.025
							c-0.074,0.267-0.284,0.468-0.561,0.538c-0.464,0.116-1.69-0.23-2.019-0.569c-0.193-0.202-0.267-0.473-0.201-0.727l0.013-0.051
							l0.023-0.047c0.032-0.065,0.115-0.202,0.826-1.319l0.262-0.413c-0.637,0.26-0.662,0.261-0.794,0.262
							c-0.251,0.011-0.502-0.123-0.654-0.361l-0.003-0.004c-0.079-0.126-0.126-0.297-0.157-0.477
							c-0.205,0.277-0.514,0.498-0.982,0.591c-0.332,0.067-0.643,0.026-0.937-0.092c-0.269,0.171-0.638,0.191-0.948,0.015
							c-0.095-0.054-0.167-0.119-0.222-0.188v0.379l-0.03,0.225l-0.009,0.041c-0.062,0.244-0.247,0.45-0.493,0.552l-0.002,0.001
							c-0.271,0.109-0.575,0.083-0.833-0.071c-0.275-0.162-0.416-0.432-0.416-0.8V7.462c-0.098,0.152-0.219,0.284-0.362,0.393
							c-0.386,0.292-0.903,0.391-1.495,0.285c-0.343-0.06-0.63-0.209-0.858-0.429c-0.004,0.007-0.007,0.016-0.011,0.023
							c-0.116,0.207-0.303,0.349-0.543,0.412c-0.401,0.11-0.91-0.026-1.12-0.743c0,0-0.034-0.116-0.081-0.274
							c-0.092,0.169-0.33,0.63-0.34,0.643c-0.215,0.326-0.645,0.467-1.029,0.314c-0.372-0.14-0.587-0.467-0.587-0.851
							c0-0.121,0.021-0.248,0.065-0.376l0.011-0.031c0,0,0.764-1.555,0.985-2.005c-0.355-0.094-0.608-0.359-0.649-0.722
							c-0.004-0.034-0.007-0.07-0.007-0.104c0-0.231,0.096-0.452,0.272-0.614c0.267-0.247,0.682-0.328,1.169-0.228
							c0.529,0.104,0.834,0.423,1.047,1.099l0.325,1.02c0.106-0.429,0.298-0.71,0.48-0.89c0.262-0.26,0.743-0.546,1.538-0.439
							c0.591,0.082,1,0.347,1.221,0.658l0.014-0.075c0.063-0.222,0.234-0.419,0.464-0.524c0.24-0.111,0.519-0.109,0.763,0.005
							c0.127,0.055,0.235,0.143,0.319,0.252V3.939c0-0.531,0.307-0.758,0.491-0.845c0.239-0.12,0.526-0.13,0.775-0.022
							c0.236,0.102,0.41,0.296,0.479,0.532l0.01,0.036l0.033,0.219c0,0,0,0.085,0,0.094c0.319-0.032,0.653,0.019,0.947,0.172
							c0.13,0.067,0.243,0.149,0.345,0.242h0.216c0.117-0.062,0.251-0.101,0.395-0.101s0.277,0.039,0.395,0.101h0.626
							c0.415-0.234,1.021-0.41,1.345-0.355c0.28,0.049,0.499,0.229,0.593,0.482l0.004,0.012c0.04,0.115,0.046,0.136,0.049,0.784
							c0.356-0.574,0.374-0.589,0.474-0.668c0.215-0.167,0.496-0.204,0.757-0.1c0.418,0.168,1.057,0.98,1.121,1.426
							c0.005,0.039,0.009,0.078,0.009,0.117C-41.238,6.3-41.338,6.516-41.519,6.66z M-48.006,8.173c0.001,0,0.001,0,0.002,0
							c0.001-0.001,0.001-0.001,0.002-0.001L-48.006,8.173z M-42.367,4.525h-0.001c-0.001,0-0.001-0.001-0.002-0.001L-42.367,4.525"
							/>
					</g>
					<g id="g1350" transform="translate(405.717,287.389)">
						<path id="path1352" fill="none" stroke="#BDBCBC" stroke-width="0.145" stroke-linecap="round" stroke-linejoin="round" d="
							M-41.519,6.66c-0.109,0.083-0.127,0.095-0.785,0.312c0.57,0.14,0.594,0.155,0.695,0.221c0.229,0.155,0.351,0.412,0.333,0.69
							l-0.002,0.03c-0.046,0.447-0.621,1.29-1.009,1.479c-0.256,0.122-0.54,0.105-0.764-0.046c-0.105-0.07-0.119-0.079-0.552-0.67
							c-0.042,0.69-0.124,1.907-0.144,2.021l-0.004,0.026l-0.007,0.025c-0.074,0.267-0.284,0.468-0.561,0.538
							c-0.464,0.116-1.69-0.23-2.019-0.569c-0.193-0.202-0.267-0.473-0.201-0.727l0.013-0.051l0.023-0.047
							c0.032-0.065,0.115-0.202,0.826-1.319l0.262-0.413c-0.637,0.26-0.662,0.261-0.794,0.262c-0.251,0.011-0.502-0.123-0.654-0.361
							l-0.003-0.004c-0.079-0.126-0.126-0.297-0.157-0.477c-0.205,0.277-0.514,0.498-0.982,0.591
							c-0.332,0.067-0.643,0.026-0.937-0.092c-0.269,0.171-0.638,0.191-0.948,0.015c-0.095-0.054-0.167-0.119-0.222-0.188v0.379
							l-0.03,0.225l-0.009,0.041c-0.062,0.244-0.247,0.45-0.493,0.552l-0.002,0.001c-0.271,0.109-0.575,0.083-0.833-0.071
							c-0.275-0.162-0.416-0.432-0.416-0.8V7.462c-0.098,0.152-0.219,0.284-0.362,0.393c-0.386,0.292-0.903,0.391-1.495,0.285
							c-0.343-0.06-0.63-0.209-0.858-0.429c-0.004,0.007-0.007,0.016-0.011,0.023c-0.116,0.207-0.303,0.349-0.543,0.412
							c-0.401,0.11-0.91-0.026-1.12-0.743c0,0-0.034-0.116-0.081-0.274c-0.092,0.169-0.33,0.63-0.34,0.643
							c-0.215,0.326-0.645,0.467-1.029,0.314c-0.372-0.14-0.587-0.467-0.587-0.851c0-0.121,0.021-0.248,0.065-0.376l0.011-0.031
							c0,0,0.764-1.555,0.985-2.005c-0.355-0.094-0.608-0.359-0.649-0.722c-0.004-0.034-0.007-0.07-0.007-0.104
							c0-0.231,0.096-0.452,0.272-0.614c0.267-0.247,0.682-0.328,1.169-0.228c0.529,0.104,0.834,0.423,1.047,1.099l0.325,1.02
							c0.106-0.429,0.298-0.71,0.48-0.89c0.262-0.26,0.743-0.546,1.538-0.439c0.591,0.082,1,0.347,1.221,0.658l0.014-0.075
							c0.063-0.222,0.234-0.419,0.464-0.524c0.24-0.111,0.519-0.109,0.763,0.005c0.127,0.055,0.235,0.143,0.319,0.252V3.939
							c0-0.531,0.307-0.758,0.491-0.845c0.239-0.12,0.526-0.13,0.775-0.022c0.236,0.102,0.41,0.296,0.479,0.532l0.01,0.036
							l0.033,0.219c0,0,0,0.085,0,0.094c0.319-0.032,0.653,0.019,0.947,0.172c0.13,0.067,0.243,0.149,0.345,0.242h0.216
							c0.117-0.062,0.251-0.101,0.395-0.101s0.277,0.039,0.395,0.101h0.626c0.415-0.234,1.021-0.41,1.345-0.355
							c0.28,0.049,0.499,0.229,0.593,0.482l0.004,0.012c0.04,0.115,0.046,0.136,0.049,0.784c0.356-0.574,0.374-0.589,0.474-0.668
							c0.215-0.167,0.496-0.204,0.757-0.1c0.418,0.168,1.057,0.98,1.121,1.426c0.005,0.039,0.009,0.078,0.009,0.117
							C-41.238,6.3-41.338,6.516-41.519,6.66z"/>
						<g id="g1354" transform="translate(-23.075,5.382)">
							<path id="path1356" fill="none" stroke="#BDBCBC" stroke-width="0.145" stroke-linecap="round" stroke-linejoin="round" d="
								M-24.931,2.791c0.001,0,0.001,0,0.002,0c0.001-0.001,0.001-0.001,0.002-0.001L-24.931,2.791z"/>
							<g id="g1358" transform="translate(20.06,-12.978)">
								<path id="path1360" fill="none" stroke="#BDBCBC" stroke-width="0.145" stroke-linecap="round" stroke-linejoin="round" d="
									M-39.352,12.121h-0.001c0,0-0.001-0.001-0.001-0.001L-39.352,12.121z"/>
							</g>
						</g>
					</g>
				</g>
			</g>
		</g>
		<g id="g1362" transform="matrix(1.25,0,0,-1.25,438.16125,697.87345)">
			<path id="path1364" fill="#E9E9E9" d="M-28.804,4.359c-0.102-0.163-0.144-0.673-0.109-1.012c0.011-0.112,0.032-0.205,0.062-0.261
				c0.04-0.077,0.109-0.123,0.186-0.126c0.049-0.003,0.08,0.006,1.016,0.307c0,0,0.416,0.132,0.418,0.133
				c0.103,0.027,0.174,0.122,0.18,0.243c0.007,0.125-0.058,0.235-0.164,0.275l-0.294,0.12c-1.006,0.415-1.05,0.431-1.101,0.431
				C-28.687,4.473-28.756,4.433-28.804,4.359"/>
		</g>
		<g id="g1366" transform="matrix(1.25,0,0,-1.25,448.16,711.61345)">
			<path id="path1368" fill="#E9E9E9" d="M-34.554,12.26c0.017,0.047,0.018,0.079,0.021,1.063c0,0,0.002,0.434,0.003,0.439
				c0.007,0.106-0.062,0.203-0.175,0.247c-0.116,0.045-0.241,0.017-0.312-0.07c0,0-0.205-0.243-0.206-0.243
				c-0.704-0.828-0.734-0.866-0.751-0.915c-0.011-0.029-0.015-0.059-0.011-0.09c0.004-0.044,0.024-0.088,0.057-0.127
				c0.163-0.195,0.946-0.483,1.196-0.44C-34.644,12.138-34.58,12.188-34.554,12.26"/>
		</g>
		<g id="g1370" transform="matrix(1.25,0,0,-1.25,455.2225,710.0922)">
			<path id="path1372" fill="#E9E9E9" d="M-38.616,11.386c0.237,0.094,0.753,0.75,0.789,1.002c0.012,0.088-0.015,0.163-0.076,0.212
				c-0.039,0.03-0.07,0.041-1.004,0.348c0,0-0.411,0.135-0.416,0.138c-0.1,0.039-0.213,0.003-0.289-0.091
				c-0.079-0.096-0.092-0.223-0.028-0.32l0.165-0.268c0.555-0.902,0.597-0.965,0.638-0.997
				C-38.775,11.361-38.697,11.352-38.616,11.386"/>
		</g>
		<g id="g1374" transform="matrix(1.25,0,0,-1.25,453.07875,699.7722)">
			<path id="path1376" fill="#E9E9E9" d="M-37.383,5.45c1.063,0.257,1.103,0.271,1.145,0.298c0.065,0.044,0.096,0.116,0.091,0.205
				c0,0.003,0,0.006,0,0.009c-0.028,0.261-0.485,0.94-0.71,1.05c-0.08,0.038-0.16,0.035-0.226-0.009
				c-0.041-0.028-0.071-0.067-0.64-0.846c0,0-0.257-0.35-0.26-0.354c-0.068-0.082-0.068-0.2-0.003-0.302
				c0.068-0.105,0.185-0.156,0.291-0.126c0,0-0.004-0.008-0.005-0.009C-37.647,5.387-37.553,5.41-37.383,5.45"/>
		</g>
		<g id="g1378" transform="matrix(1.25,0,0,-1.25,448.33375,695.87095)">
			<path id="path1380" fill="#E9E9E9" d="M-34.654,3.207c-0.018,0.421-0.145,2.296-0.16,2.382c-0.021,0.079-0.083,0.135-0.171,0.157
				c-0.271,0.067-1.308-0.223-1.5-0.421c-0.062-0.064-0.085-0.144-0.067-0.214c0.03-0.062,1.315-2.083,1.315-2.083
				c0.19-0.308,0.345-0.26,0.396-0.244C-34.79,2.8-34.636,2.848-34.654,3.207"/>
		</g>
		<g id="g1382" transform="matrix(1.25,0,0,-1.25,438.53875,696.92845)">
			<path id="path1384" fill="#BF2519" d="M-29.021,3.815c-0.101-0.162-0.144-0.673-0.109-1.012c0.012-0.112,0.033-0.205,0.062-0.261
				c0.04-0.077,0.108-0.123,0.186-0.126c0.05-0.003,0.081,0.006,1.017,0.307c0,0,0.416,0.133,0.417,0.134
				c0.103,0.026,0.174,0.122,0.18,0.243c0.006,0.125-0.057,0.235-0.164,0.275c0,0-0.293,0.119-0.294,0.119
				c-1.005,0.415-1.05,0.431-1.101,0.432C-28.904,3.929-28.973,3.89-29.021,3.815"/>
		</g>
		<g id="g1386" transform="matrix(1.25,0,0,-1.25,448.53875,710.66595)">
			<path id="path1388" fill="#BF2519" d="M-34.772,11.716c0.016,0.047,0.019,0.079,0.021,1.062c0,0,0.002,0.434,0.003,0.439
				c0.006,0.107-0.062,0.204-0.175,0.247c-0.116,0.045-0.241,0.017-0.312-0.07c0,0-0.205-0.243-0.206-0.243
				c-0.704-0.827-0.734-0.866-0.751-0.914c-0.011-0.029-0.015-0.06-0.012-0.09c0.004-0.044,0.025-0.087,0.057-0.128
				c0.163-0.194,0.946-0.482,1.197-0.439C-34.862,11.594-34.799,11.642-34.772,11.716"/>
		</g>
		<g id="g1390" transform="matrix(1.25,0,0,-1.25,455.60375,709.1447)">
			<path id="path1392" fill="#BF2519" d="M-38.835,10.84c0.236,0.094,0.751,0.75,0.787,1.002c0.013,0.088-0.015,0.164-0.075,0.212
				c-0.04,0.03-0.07,0.041-1.005,0.348c0,0-0.41,0.136-0.416,0.138c-0.099,0.039-0.213,0.003-0.289-0.091
				c-0.079-0.096-0.091-0.224-0.028-0.32l0.165-0.269c0.555-0.901,0.598-0.965,0.637-0.996
				C-38.995,10.815-38.917,10.808-38.835,10.84"/>
		</g>
		<g id="g1394" transform="matrix(1.25,0,0,-1.25,453.455,698.8272)">
			<path id="path1396" fill="#BF2519" d="M-37.599,4.907c1.063,0.258,1.104,0.271,1.145,0.299c0.065,0.043,0.097,0.116,0.091,0.204
				c0,0.003,0,0.006,0,0.009c-0.027,0.261-0.484,0.94-0.71,1.05c-0.079,0.038-0.159,0.036-0.226-0.009
				c-0.041-0.027-0.071-0.067-0.64-0.845c0,0-0.257-0.35-0.26-0.353c-0.068-0.082-0.069-0.201-0.003-0.302
				c0.069-0.105,0.185-0.156,0.291-0.127c0,0-0.004-0.007-0.005-0.009C-37.863,4.844-37.77,4.867-37.599,4.907"/>
		</g>
		<g id="g1398" transform="matrix(1.25,0,0,-1.25,448.7125,694.92595)">
			<path id="path1400" fill="#BF2519" d="M-34.872,2.664c-0.018,0.421-0.145,2.296-0.16,2.383c-0.021,0.079-0.083,0.135-0.172,0.157
				c-0.271,0.067-1.308-0.223-1.5-0.421c-0.062-0.064-0.084-0.144-0.066-0.214c0.031-0.062,1.315-2.083,1.315-2.083
				c0.19-0.308,0.345-0.26,0.396-0.244C-35.008,2.257-34.854,2.304-34.872,2.664"/>
		</g>
		<g id="g1402" transform="matrix(1.25,0,0,-1.25,390.21,714.68845)">
			<path id="path1404" fill="#231F20" d="M-1.227,14.029c0.134-0.124,0.387-0.159,0.696-0.096c0.289,0.057,0.468,0.186,0.64,0.734
				l0.858,2.697c0.045,0.143,0.041,0.267-0.01,0.36c-0.041,0.074-0.11,0.124-0.207,0.15C0.596,17.915,0.405,17.91,0.285,17.5
				l-0.451-1.53c0,0-0.917,1.733-0.918,1.733c-0.058,0.116-0.228,0.199-0.4,0.13c-0.226-0.086-0.301-0.288-0.211-0.55
				c0,0,1.116-2.271,1.118-2.277c0,0,0.03-0.081,0.03-0.094c0,0,0.01-0.062,0.01-0.064c-0.002-0.087-0.032-0.161-0.084-0.21
				c-0.051-0.048-0.123-0.074-0.206-0.07c0,0-0.174,0.004-0.187,0.004c-0.179-0.022-0.291-0.124-0.309-0.283
				C-1.335,14.187-1.302,14.097-1.227,14.029"/>
		</g>
		<g id="g1406" transform="matrix(1.25,0,0,-1.25,409.75875,703.3197)">
			<path id="path1408" fill="#231F20" d="M-12.47,7.49h-1.195c-0.032,0.024-0.048,0.063-0.024,0.183
				c0.015,0.063,0.032,0.119,0.079,0.198c0.015,0.024,0.031,0.048,0.047,0.072c0.087,0.11,0.206,0.181,0.34,0.213
				c0.42,0.102,0.713-0.111,0.761-0.475C-12.439,7.522-12.453,7.49-12.47,7.49z M-11.735,7.699c-0.038,0.39-0.189,0.694-0.435,0.88
				c-0.263,0.199-0.634,0.263-1.074,0.184c-0.552-0.096-0.883-0.49-0.959-1.141c-0.093-0.779,0.035-1.366,0.372-1.698
				c0.254-0.251,0.63-0.351,1.087-0.289C-12.093,5.726-11.8,6.084-11.8,6.31c0,0.167-0.101,0.298-0.249,0.318
				c-0.085,0.017-0.156,0-0.314-0.142c-0.228-0.198-0.492-0.278-0.726-0.219c-0.178,0.045-0.317,0.168-0.38,0.337
				c0,0-0.028,0.111-0.026,0.099c-0.019,0.1-0.028,0.2,0.034,0.24l0.017,0.011h1.432c0.132,0,0.199,0.017,0.238,0.059
				C-11.695,7.101-11.702,7.35-11.735,7.699"/>
		</g>
		<g id="g1410" transform="matrix(1.25,0,0,-1.25,418.79625,693.2322)">
			<path id="path1412" fill="#231F20" d="M-17.667,1.689c-0.113,0.046-0.241,0.034-0.353-0.033
				c-0.108-0.064-0.153-0.161-0.153-0.337v-3.415c0,0,0.019-0.122,0.021-0.127c0.024-0.085,0.087-0.158,0.175-0.197
				c0.097-0.045,0.209-0.044,0.309,0.003c0.124,0.054,0.198,0.178,0.198,0.333v3.421c0,0-0.022,0.165-0.022,0.168
				C-17.513,1.584-17.578,1.653-17.667,1.689"/>
		</g>
		<g id="g1414" transform="matrix(1.25,0,0,-1.25,430.81125,708.65345)">
			<path id="path1416" fill="#231F20" d="M-24.577,10.558c-0.473,0-0.548,0.42-0.563,0.737c-0.001,0.001-0.006,0.186-0.006,0.186
				s0.005,0.137,0.005,0.142c0.031,0.548,0.144,0.764,0.433,0.825c0.195,0.045,0.343,0.023,0.455-0.067
				c0.167-0.135,0.241-0.42,0.234-0.895C-24.024,10.928-24.121,10.558-24.577,10.558z M-24.542,13.065
				c-0.316,0.065-0.588,0.011-0.848-0.166c0,0-0.029-0.024-0.041-0.03l-0.023-0.012l-0.071-0.032l-0.021,0.08l-0.017,0.029
				l-0.006,0.018l-0.002,0.005c0,0-0.017,0.023-0.02,0.027c-0.075,0.117-0.278,0.17-0.461,0.065
				c-0.09-0.051-0.141-0.123-0.141-0.337V9.361c0-0.184,0.058-0.298,0.183-0.358c0.106-0.054,0.226-0.058,0.328-0.013
				c0.087,0.038,0.151,0.105,0.175,0.188l0.021,0.144v0.58l-0.006,0.093l0.003,0.027l0.004,0.013l0.034,0.11l0.105-0.07
				c0,0,0.027-0.017,0.038-0.029l0.032-0.021c0,0,0.036-0.021,0.036-0.021c0.001,0,0.034-0.017,0.034-0.017
				c0.281-0.133,0.657-0.117,0.96,0.039c0.381,0.199,0.57,0.552,0.613,1.145C-23.542,12.358-23.815,12.924-24.542,13.065"/>
		</g>
		<g id="g1418" transform="matrix(1.25,0,0,-1.25,437.5,709.8197)">
			<path id="path1420" fill="#231F20" d="M-28.423,11.229h0.038c0.032,0,0.062,0.002,0.062,0.037c0,0.032-0.028,0.035-0.052,0.035
				h-0.049V11.229z M-28.455,11.33h0.084c0.055,0,0.08-0.02,0.08-0.065c0-0.041-0.026-0.058-0.06-0.062l0.066-0.101h-0.034
				l-0.062,0.098h-0.041v-0.098h-0.032V11.33z M-28.382,11.049c0.092,0,0.167,0.073,0.167,0.169c0,0.095-0.075,0.168-0.167,0.168
				c-0.093,0-0.167-0.073-0.167-0.17C-28.549,11.122-28.475,11.049-28.382,11.049z M-28.382,11.415c0.108,0,0.199-0.085,0.199-0.196
				c0-0.113-0.091-0.198-0.199-0.198s-0.199,0.085-0.199,0.196C-28.58,11.33-28.49,11.415-28.382,11.415"/>
		</g>
	</g>
</g>
</svg>
